G04 #@! TF.FileFunction,Legend,Top*
%FSLAX46Y46*%
G04 Gerber Fmt 4.6, Leading zero omitted, Abs format (unit mm)*
G04 Created by KiCad (PCBNEW 4.0.7) date Wed Feb  7 00:44:32 2018*
%MOMM*%
%LPD*%
G01*
G04 APERTURE LIST*
%ADD10C,0.100000*%
%ADD11C,0.200000*%
%ADD12C,0.300000*%
%ADD13C,0.150000*%
%ADD14C,0.120000*%
G04 APERTURE END LIST*
D10*
D11*
X145399524Y-136929762D02*
X145542381Y-136977381D01*
X145780477Y-136977381D01*
X145875715Y-136929762D01*
X145923334Y-136882143D01*
X145970953Y-136786905D01*
X145970953Y-136691667D01*
X145923334Y-136596429D01*
X145875715Y-136548810D01*
X145780477Y-136501190D01*
X145590000Y-136453571D01*
X145494762Y-136405952D01*
X145447143Y-136358333D01*
X145399524Y-136263095D01*
X145399524Y-136167857D01*
X145447143Y-136072619D01*
X145494762Y-136025000D01*
X145590000Y-135977381D01*
X145828096Y-135977381D01*
X145970953Y-136025000D01*
X146399524Y-136977381D02*
X146399524Y-135977381D01*
X147399524Y-136025000D02*
X147304286Y-135977381D01*
X147161429Y-135977381D01*
X147018571Y-136025000D01*
X146923333Y-136120238D01*
X146875714Y-136215476D01*
X146828095Y-136405952D01*
X146828095Y-136548810D01*
X146875714Y-136739286D01*
X146923333Y-136834524D01*
X147018571Y-136929762D01*
X147161429Y-136977381D01*
X147256667Y-136977381D01*
X147399524Y-136929762D01*
X147447143Y-136882143D01*
X147447143Y-136548810D01*
X147256667Y-136548810D01*
X147828095Y-136072619D02*
X147875714Y-136025000D01*
X147970952Y-135977381D01*
X148209048Y-135977381D01*
X148304286Y-136025000D01*
X148351905Y-136072619D01*
X148399524Y-136167857D01*
X148399524Y-136263095D01*
X148351905Y-136405952D01*
X147780476Y-136977381D01*
X148399524Y-136977381D01*
X146351905Y-134389762D02*
X146494762Y-134437381D01*
X146732858Y-134437381D01*
X146828096Y-134389762D01*
X146875715Y-134342143D01*
X146923334Y-134246905D01*
X146923334Y-134151667D01*
X146875715Y-134056429D01*
X146828096Y-134008810D01*
X146732858Y-133961190D01*
X146542381Y-133913571D01*
X146447143Y-133865952D01*
X146399524Y-133818333D01*
X146351905Y-133723095D01*
X146351905Y-133627857D01*
X146399524Y-133532619D01*
X146447143Y-133485000D01*
X146542381Y-133437381D01*
X146780477Y-133437381D01*
X146923334Y-133485000D01*
X147351905Y-134437381D02*
X147351905Y-133437381D01*
X148351905Y-133485000D02*
X148256667Y-133437381D01*
X148113810Y-133437381D01*
X147970952Y-133485000D01*
X147875714Y-133580238D01*
X147828095Y-133675476D01*
X147780476Y-133865952D01*
X147780476Y-134008810D01*
X147828095Y-134199286D01*
X147875714Y-134294524D01*
X147970952Y-134389762D01*
X148113810Y-134437381D01*
X148209048Y-134437381D01*
X148351905Y-134389762D01*
X148399524Y-134342143D01*
X148399524Y-134008810D01*
X148209048Y-134008810D01*
X145351904Y-131897381D02*
X145351904Y-130897381D01*
X145589999Y-130897381D01*
X145732857Y-130945000D01*
X145828095Y-131040238D01*
X145875714Y-131135476D01*
X145923333Y-131325952D01*
X145923333Y-131468810D01*
X145875714Y-131659286D01*
X145828095Y-131754524D01*
X145732857Y-131849762D01*
X145589999Y-131897381D01*
X145351904Y-131897381D01*
X146304285Y-131611667D02*
X146780476Y-131611667D01*
X146209047Y-131897381D02*
X146542380Y-130897381D01*
X146875714Y-131897381D01*
X147066190Y-130897381D02*
X147637619Y-130897381D01*
X147351904Y-131897381D02*
X147351904Y-130897381D01*
X147923333Y-131611667D02*
X148399524Y-131611667D01*
X147828095Y-131897381D02*
X148161428Y-130897381D01*
X148494762Y-131897381D01*
X144923333Y-129071667D02*
X145399524Y-129071667D01*
X144828095Y-129357381D02*
X145161428Y-128357381D01*
X145494762Y-129357381D01*
X145828095Y-129357381D02*
X145828095Y-128357381D01*
X146066190Y-128357381D01*
X146209048Y-128405000D01*
X146304286Y-128500238D01*
X146351905Y-128595476D01*
X146399524Y-128785952D01*
X146399524Y-128928810D01*
X146351905Y-129119286D01*
X146304286Y-129214524D01*
X146209048Y-129309762D01*
X146066190Y-129357381D01*
X145828095Y-129357381D01*
X146828095Y-129357381D02*
X146828095Y-128357381D01*
X147066190Y-128357381D01*
X147209048Y-128405000D01*
X147304286Y-128500238D01*
X147351905Y-128595476D01*
X147399524Y-128785952D01*
X147399524Y-128928810D01*
X147351905Y-129119286D01*
X147304286Y-129214524D01*
X147209048Y-129309762D01*
X147066190Y-129357381D01*
X146828095Y-129357381D01*
X148399524Y-129357381D02*
X148066190Y-128881190D01*
X147828095Y-129357381D02*
X147828095Y-128357381D01*
X148209048Y-128357381D01*
X148304286Y-128405000D01*
X148351905Y-128452619D01*
X148399524Y-128547857D01*
X148399524Y-128690714D01*
X148351905Y-128785952D01*
X148304286Y-128833571D01*
X148209048Y-128881190D01*
X147828095Y-128881190D01*
X140470000Y-117983095D02*
X140422381Y-118078333D01*
X140422381Y-118221190D01*
X140470000Y-118364048D01*
X140565238Y-118459286D01*
X140660476Y-118506905D01*
X140850952Y-118554524D01*
X140993810Y-118554524D01*
X141184286Y-118506905D01*
X141279524Y-118459286D01*
X141374762Y-118364048D01*
X141422381Y-118221190D01*
X141422381Y-118125952D01*
X141374762Y-117983095D01*
X141327143Y-117935476D01*
X140993810Y-117935476D01*
X140993810Y-118125952D01*
X141422381Y-117506905D02*
X140422381Y-117506905D01*
X141422381Y-116935476D01*
X140422381Y-116935476D01*
X141422381Y-116459286D02*
X140422381Y-116459286D01*
X140422381Y-116221191D01*
X140470000Y-116078333D01*
X140565238Y-115983095D01*
X140660476Y-115935476D01*
X140850952Y-115887857D01*
X140993810Y-115887857D01*
X141184286Y-115935476D01*
X141279524Y-115983095D01*
X141374762Y-116078333D01*
X141422381Y-116221191D01*
X141422381Y-116459286D01*
X135818571Y-118507680D02*
X135818571Y-118174346D01*
X136342381Y-118031489D02*
X136342381Y-118507680D01*
X135342381Y-118507680D01*
X135342381Y-118031489D01*
X135342381Y-117698156D02*
X136342381Y-117031489D01*
X135342381Y-117031489D02*
X136342381Y-117698156D01*
X136342381Y-116126727D02*
X136342381Y-116698156D01*
X136342381Y-116412442D02*
X135342381Y-116412442D01*
X135485238Y-116507680D01*
X135580476Y-116602918D01*
X135628095Y-116698156D01*
X133278571Y-118506905D02*
X133278571Y-118173571D01*
X133802381Y-118030714D02*
X133802381Y-118506905D01*
X132802381Y-118506905D01*
X132802381Y-118030714D01*
X132802381Y-117697381D02*
X133802381Y-117030714D01*
X132802381Y-117030714D02*
X133802381Y-117697381D01*
X132802381Y-116745000D02*
X132802381Y-116125952D01*
X133183333Y-116459286D01*
X133183333Y-116316428D01*
X133230952Y-116221190D01*
X133278571Y-116173571D01*
X133373810Y-116125952D01*
X133611905Y-116125952D01*
X133707143Y-116173571D01*
X133754762Y-116221190D01*
X133802381Y-116316428D01*
X133802381Y-116602143D01*
X133754762Y-116697381D01*
X133707143Y-116745000D01*
X130738571Y-118506905D02*
X130738571Y-118173571D01*
X131262381Y-118030714D02*
X131262381Y-118506905D01*
X130262381Y-118506905D01*
X130262381Y-118030714D01*
X130262381Y-117697381D02*
X131262381Y-117030714D01*
X130262381Y-117030714D02*
X131262381Y-117697381D01*
X130262381Y-116173571D02*
X130262381Y-116649762D01*
X130738571Y-116697381D01*
X130690952Y-116649762D01*
X130643333Y-116554524D01*
X130643333Y-116316428D01*
X130690952Y-116221190D01*
X130738571Y-116173571D01*
X130833810Y-116125952D01*
X131071905Y-116125952D01*
X131167143Y-116173571D01*
X131214762Y-116221190D01*
X131262381Y-116316428D01*
X131262381Y-116554524D01*
X131214762Y-116649762D01*
X131167143Y-116697381D01*
X128198571Y-118506905D02*
X128198571Y-118173571D01*
X128722381Y-118030714D02*
X128722381Y-118506905D01*
X127722381Y-118506905D01*
X127722381Y-118030714D01*
X127722381Y-117697381D02*
X128722381Y-117030714D01*
X127722381Y-117030714D02*
X128722381Y-117697381D01*
X127722381Y-116745000D02*
X127722381Y-116078333D01*
X128722381Y-116506905D01*
X140470000Y-131190714D02*
X140422381Y-131285952D01*
X140422381Y-131428809D01*
X140470000Y-131571667D01*
X140565238Y-131666905D01*
X140660476Y-131714524D01*
X140850952Y-131762143D01*
X140993810Y-131762143D01*
X141184286Y-131714524D01*
X141279524Y-131666905D01*
X141374762Y-131571667D01*
X141422381Y-131428809D01*
X141422381Y-131333571D01*
X141374762Y-131190714D01*
X141327143Y-131143095D01*
X140993810Y-131143095D01*
X140993810Y-131333571D01*
X141422381Y-130714524D02*
X140422381Y-130714524D01*
X141422381Y-130143095D01*
X140422381Y-130143095D01*
X141422381Y-129666905D02*
X140422381Y-129666905D01*
X140422381Y-129428810D01*
X140470000Y-129285952D01*
X140565238Y-129190714D01*
X140660476Y-129143095D01*
X140850952Y-129095476D01*
X140993810Y-129095476D01*
X141184286Y-129143095D01*
X141279524Y-129190714D01*
X141374762Y-129285952D01*
X141422381Y-129428810D01*
X141422381Y-129666905D01*
X135818571Y-131476429D02*
X135818571Y-131143095D01*
X136342381Y-131000238D02*
X136342381Y-131476429D01*
X135342381Y-131476429D01*
X135342381Y-131000238D01*
X135342381Y-130666905D02*
X136342381Y-130000238D01*
X135342381Y-130000238D02*
X136342381Y-130666905D01*
X135437619Y-129666905D02*
X135390000Y-129619286D01*
X135342381Y-129524048D01*
X135342381Y-129285952D01*
X135390000Y-129190714D01*
X135437619Y-129143095D01*
X135532857Y-129095476D01*
X135628095Y-129095476D01*
X135770952Y-129143095D01*
X136342381Y-129714524D01*
X136342381Y-129095476D01*
X133278571Y-131476429D02*
X133278571Y-131143095D01*
X133802381Y-131000238D02*
X133802381Y-131476429D01*
X132802381Y-131476429D01*
X132802381Y-131000238D01*
X132802381Y-130666905D02*
X133802381Y-130000238D01*
X132802381Y-130000238D02*
X133802381Y-130666905D01*
X133135714Y-129190714D02*
X133802381Y-129190714D01*
X132754762Y-129428810D02*
X133469048Y-129666905D01*
X133469048Y-129047857D01*
X130738571Y-131476429D02*
X130738571Y-131143095D01*
X131262381Y-131000238D02*
X131262381Y-131476429D01*
X130262381Y-131476429D01*
X130262381Y-131000238D01*
X130262381Y-130666905D02*
X131262381Y-130000238D01*
X130262381Y-130000238D02*
X131262381Y-130666905D01*
X130262381Y-129190714D02*
X130262381Y-129381191D01*
X130310000Y-129476429D01*
X130357619Y-129524048D01*
X130500476Y-129619286D01*
X130690952Y-129666905D01*
X131071905Y-129666905D01*
X131167143Y-129619286D01*
X131214762Y-129571667D01*
X131262381Y-129476429D01*
X131262381Y-129285952D01*
X131214762Y-129190714D01*
X131167143Y-129143095D01*
X131071905Y-129095476D01*
X130833810Y-129095476D01*
X130738571Y-129143095D01*
X130690952Y-129190714D01*
X130643333Y-129285952D01*
X130643333Y-129476429D01*
X130690952Y-129571667D01*
X130738571Y-129619286D01*
X130833810Y-129666905D01*
X128198571Y-131476429D02*
X128198571Y-131143095D01*
X128722381Y-131000238D02*
X128722381Y-131476429D01*
X127722381Y-131476429D01*
X127722381Y-131000238D01*
X127722381Y-130666905D02*
X128722381Y-130000238D01*
X127722381Y-130000238D02*
X128722381Y-130666905D01*
X128150952Y-129476429D02*
X128103333Y-129571667D01*
X128055714Y-129619286D01*
X127960476Y-129666905D01*
X127912857Y-129666905D01*
X127817619Y-129619286D01*
X127770000Y-129571667D01*
X127722381Y-129476429D01*
X127722381Y-129285952D01*
X127770000Y-129190714D01*
X127817619Y-129143095D01*
X127912857Y-129095476D01*
X127960476Y-129095476D01*
X128055714Y-129143095D01*
X128103333Y-129190714D01*
X128150952Y-129285952D01*
X128150952Y-129476429D01*
X128198571Y-129571667D01*
X128246190Y-129619286D01*
X128341429Y-129666905D01*
X128531905Y-129666905D01*
X128627143Y-129619286D01*
X128674762Y-129571667D01*
X128722381Y-129476429D01*
X128722381Y-129285952D01*
X128674762Y-129190714D01*
X128627143Y-129143095D01*
X128531905Y-129095476D01*
X128341429Y-129095476D01*
X128246190Y-129143095D01*
X128198571Y-129190714D01*
X128150952Y-129285952D01*
D12*
X101347144Y-135382857D02*
X100947144Y-134811429D01*
X100661429Y-135382857D02*
X100661429Y-134182857D01*
X101118572Y-134182857D01*
X101232858Y-134240000D01*
X101290001Y-134297143D01*
X101347144Y-134411429D01*
X101347144Y-134582857D01*
X101290001Y-134697143D01*
X101232858Y-134754286D01*
X101118572Y-134811429D01*
X100661429Y-134811429D01*
X102547144Y-135268571D02*
X102490001Y-135325714D01*
X102318572Y-135382857D01*
X102204286Y-135382857D01*
X102032858Y-135325714D01*
X101918572Y-135211429D01*
X101861429Y-135097143D01*
X101804286Y-134868571D01*
X101804286Y-134697143D01*
X101861429Y-134468571D01*
X101918572Y-134354286D01*
X102032858Y-134240000D01*
X102204286Y-134182857D01*
X102318572Y-134182857D01*
X102490001Y-134240000D01*
X102547144Y-134297143D01*
X103004286Y-134297143D02*
X103061429Y-134240000D01*
X103175715Y-134182857D01*
X103461429Y-134182857D01*
X103575715Y-134240000D01*
X103632858Y-134297143D01*
X103690001Y-134411429D01*
X103690001Y-134525714D01*
X103632858Y-134697143D01*
X102947144Y-135382857D01*
X103690001Y-135382857D01*
X104432858Y-134182857D02*
X104547143Y-134182857D01*
X104661429Y-134240000D01*
X104718572Y-134297143D01*
X104775715Y-134411429D01*
X104832858Y-134640000D01*
X104832858Y-134925714D01*
X104775715Y-135154286D01*
X104718572Y-135268571D01*
X104661429Y-135325714D01*
X104547143Y-135382857D01*
X104432858Y-135382857D01*
X104318572Y-135325714D01*
X104261429Y-135268571D01*
X104204286Y-135154286D01*
X104147143Y-134925714D01*
X104147143Y-134640000D01*
X104204286Y-134411429D01*
X104261429Y-134297143D01*
X104318572Y-134240000D01*
X104432858Y-134182857D01*
X105975715Y-135382857D02*
X105290000Y-135382857D01*
X105632858Y-135382857D02*
X105632858Y-134182857D01*
X105518572Y-134354286D01*
X105404286Y-134468571D01*
X105290000Y-134525714D01*
X107004286Y-134582857D02*
X107004286Y-135382857D01*
X106718572Y-134125714D02*
X106432857Y-134982857D01*
X107175715Y-134982857D01*
X109118572Y-134182857D02*
X108547143Y-134182857D01*
X108490000Y-134754286D01*
X108547143Y-134697143D01*
X108661429Y-134640000D01*
X108947143Y-134640000D01*
X109061429Y-134697143D01*
X109118572Y-134754286D01*
X109175715Y-134868571D01*
X109175715Y-135154286D01*
X109118572Y-135268571D01*
X109061429Y-135325714D01*
X108947143Y-135382857D01*
X108661429Y-135382857D01*
X108547143Y-135325714D01*
X108490000Y-135268571D01*
X109518572Y-134182857D02*
X109918572Y-135382857D01*
X110318572Y-134182857D01*
X112547143Y-134582857D02*
X111632857Y-134925714D01*
X112547143Y-135268571D01*
X113118571Y-134925714D02*
X114032857Y-134925714D01*
X114604285Y-134582857D02*
X115518571Y-134925714D01*
X114604285Y-135268571D01*
X116890000Y-134182857D02*
X117632857Y-134182857D01*
X117232857Y-134640000D01*
X117404285Y-134640000D01*
X117518571Y-134697143D01*
X117575714Y-134754286D01*
X117632857Y-134868571D01*
X117632857Y-135154286D01*
X117575714Y-135268571D01*
X117518571Y-135325714D01*
X117404285Y-135382857D01*
X117061428Y-135382857D01*
X116947142Y-135325714D01*
X116890000Y-135268571D01*
X118147142Y-135268571D02*
X118204285Y-135325714D01*
X118147142Y-135382857D01*
X118089999Y-135325714D01*
X118147142Y-135268571D01*
X118147142Y-135382857D01*
X118604286Y-134182857D02*
X119347143Y-134182857D01*
X118947143Y-134640000D01*
X119118571Y-134640000D01*
X119232857Y-134697143D01*
X119290000Y-134754286D01*
X119347143Y-134868571D01*
X119347143Y-135154286D01*
X119290000Y-135268571D01*
X119232857Y-135325714D01*
X119118571Y-135382857D01*
X118775714Y-135382857D01*
X118661428Y-135325714D01*
X118604286Y-135268571D01*
X119690000Y-134182857D02*
X120090000Y-135382857D01*
X120490000Y-134182857D01*
X104518573Y-136854286D02*
X104118573Y-136854286D01*
X104118573Y-137482857D02*
X104118573Y-136282857D01*
X104690002Y-136282857D01*
X105147144Y-137482857D02*
X105147144Y-136282857D01*
X105604287Y-136282857D01*
X105718573Y-136340000D01*
X105775716Y-136397143D01*
X105832859Y-136511429D01*
X105832859Y-136682857D01*
X105775716Y-136797143D01*
X105718573Y-136854286D01*
X105604287Y-136911429D01*
X105147144Y-136911429D01*
X106975716Y-136340000D02*
X106861430Y-136282857D01*
X106690001Y-136282857D01*
X106518573Y-136340000D01*
X106404287Y-136454286D01*
X106347144Y-136568571D01*
X106290001Y-136797143D01*
X106290001Y-136968571D01*
X106347144Y-137197143D01*
X106404287Y-137311429D01*
X106518573Y-137425714D01*
X106690001Y-137482857D01*
X106804287Y-137482857D01*
X106975716Y-137425714D01*
X107032859Y-137368571D01*
X107032859Y-136968571D01*
X106804287Y-136968571D01*
X107490001Y-137140000D02*
X108061430Y-137140000D01*
X107375716Y-137482857D02*
X107775716Y-136282857D01*
X108175716Y-137482857D01*
X109490001Y-137482857D02*
X109490001Y-136282857D01*
X110061430Y-136682857D02*
X110061430Y-137482857D01*
X110061430Y-136797143D02*
X110118573Y-136740000D01*
X110232859Y-136682857D01*
X110404287Y-136682857D01*
X110518573Y-136740000D01*
X110575716Y-136854286D01*
X110575716Y-137482857D01*
X110975716Y-136682857D02*
X111432859Y-136682857D01*
X111147144Y-136282857D02*
X111147144Y-137311429D01*
X111204287Y-137425714D01*
X111318573Y-137482857D01*
X111432859Y-137482857D01*
X112290001Y-137425714D02*
X112175715Y-137482857D01*
X111947144Y-137482857D01*
X111832858Y-137425714D01*
X111775715Y-137311429D01*
X111775715Y-136854286D01*
X111832858Y-136740000D01*
X111947144Y-136682857D01*
X112175715Y-136682857D01*
X112290001Y-136740000D01*
X112347144Y-136854286D01*
X112347144Y-136968571D01*
X111775715Y-137082857D01*
X112861429Y-137482857D02*
X112861429Y-136682857D01*
X112861429Y-136911429D02*
X112918572Y-136797143D01*
X112975715Y-136740000D01*
X113090001Y-136682857D01*
X113204286Y-136682857D01*
X113432858Y-136682857D02*
X113890001Y-136682857D01*
X113604286Y-137482857D02*
X113604286Y-136454286D01*
X113661429Y-136340000D01*
X113775715Y-136282857D01*
X113890001Y-136282857D01*
X114804286Y-137482857D02*
X114804286Y-136854286D01*
X114747143Y-136740000D01*
X114632857Y-136682857D01*
X114404286Y-136682857D01*
X114290000Y-136740000D01*
X114804286Y-137425714D02*
X114690000Y-137482857D01*
X114404286Y-137482857D01*
X114290000Y-137425714D01*
X114232857Y-137311429D01*
X114232857Y-137197143D01*
X114290000Y-137082857D01*
X114404286Y-137025714D01*
X114690000Y-137025714D01*
X114804286Y-136968571D01*
X115890000Y-137425714D02*
X115775714Y-137482857D01*
X115547143Y-137482857D01*
X115432857Y-137425714D01*
X115375714Y-137368571D01*
X115318571Y-137254286D01*
X115318571Y-136911429D01*
X115375714Y-136797143D01*
X115432857Y-136740000D01*
X115547143Y-136682857D01*
X115775714Y-136682857D01*
X115890000Y-136740000D01*
X116861428Y-137425714D02*
X116747142Y-137482857D01*
X116518571Y-137482857D01*
X116404285Y-137425714D01*
X116347142Y-137311429D01*
X116347142Y-136854286D01*
X116404285Y-136740000D01*
X116518571Y-136682857D01*
X116747142Y-136682857D01*
X116861428Y-136740000D01*
X116918571Y-136854286D01*
X116918571Y-136968571D01*
X116347142Y-137082857D01*
X155216429Y-161197857D02*
X154816429Y-160626429D01*
X154530714Y-161197857D02*
X154530714Y-159997857D01*
X154987857Y-159997857D01*
X155102143Y-160055000D01*
X155159286Y-160112143D01*
X155216429Y-160226429D01*
X155216429Y-160397857D01*
X155159286Y-160512143D01*
X155102143Y-160569286D01*
X154987857Y-160626429D01*
X154530714Y-160626429D01*
X156187857Y-161140714D02*
X156073571Y-161197857D01*
X155845000Y-161197857D01*
X155730714Y-161140714D01*
X155673571Y-161026429D01*
X155673571Y-160569286D01*
X155730714Y-160455000D01*
X155845000Y-160397857D01*
X156073571Y-160397857D01*
X156187857Y-160455000D01*
X156245000Y-160569286D01*
X156245000Y-160683571D01*
X155673571Y-160797857D01*
X156645000Y-160397857D02*
X156930714Y-161197857D01*
X157216428Y-160397857D01*
X159216429Y-161197857D02*
X158530714Y-161197857D01*
X158873572Y-161197857D02*
X158873572Y-159997857D01*
X158759286Y-160169286D01*
X158645000Y-160283571D01*
X158530714Y-160340714D01*
D11*
X64754286Y-132643571D02*
X64420952Y-132643571D01*
X64420952Y-133167381D02*
X64420952Y-132167381D01*
X64897143Y-132167381D01*
X65278095Y-133167381D02*
X65278095Y-132167381D01*
X65659048Y-132167381D01*
X65754286Y-132215000D01*
X65801905Y-132262619D01*
X65849524Y-132357857D01*
X65849524Y-132500714D01*
X65801905Y-132595952D01*
X65754286Y-132643571D01*
X65659048Y-132691190D01*
X65278095Y-132691190D01*
X66801905Y-132215000D02*
X66706667Y-132167381D01*
X66563810Y-132167381D01*
X66420952Y-132215000D01*
X66325714Y-132310238D01*
X66278095Y-132405476D01*
X66230476Y-132595952D01*
X66230476Y-132738810D01*
X66278095Y-132929286D01*
X66325714Y-133024524D01*
X66420952Y-133119762D01*
X66563810Y-133167381D01*
X66659048Y-133167381D01*
X66801905Y-133119762D01*
X66849524Y-133072143D01*
X66849524Y-132738810D01*
X66659048Y-132738810D01*
X67230476Y-132881667D02*
X67706667Y-132881667D01*
X67135238Y-133167381D02*
X67468571Y-132167381D01*
X67801905Y-133167381D01*
X66103572Y-128087381D02*
X65770238Y-127611190D01*
X65532143Y-128087381D02*
X65532143Y-127087381D01*
X65913096Y-127087381D01*
X66008334Y-127135000D01*
X66055953Y-127182619D01*
X66103572Y-127277857D01*
X66103572Y-127420714D01*
X66055953Y-127515952D01*
X66008334Y-127563571D01*
X65913096Y-127611190D01*
X65532143Y-127611190D01*
X66913096Y-128039762D02*
X66817858Y-128087381D01*
X66627381Y-128087381D01*
X66532143Y-128039762D01*
X66484524Y-127944524D01*
X66484524Y-127563571D01*
X66532143Y-127468333D01*
X66627381Y-127420714D01*
X66817858Y-127420714D01*
X66913096Y-127468333D01*
X66960715Y-127563571D01*
X66960715Y-127658810D01*
X66484524Y-127754048D01*
X67817858Y-127420714D02*
X67817858Y-128230238D01*
X67770239Y-128325476D01*
X67722620Y-128373095D01*
X67627381Y-128420714D01*
X67484524Y-128420714D01*
X67389286Y-128373095D01*
X67817858Y-128039762D02*
X67722620Y-128087381D01*
X67532143Y-128087381D01*
X67436905Y-128039762D01*
X67389286Y-127992143D01*
X67341667Y-127896905D01*
X67341667Y-127611190D01*
X67389286Y-127515952D01*
X67436905Y-127468333D01*
X67532143Y-127420714D01*
X67722620Y-127420714D01*
X67817858Y-127468333D01*
X63580475Y-135342381D02*
X64199523Y-135342381D01*
X63866189Y-135723333D01*
X64009047Y-135723333D01*
X64104285Y-135770952D01*
X64151904Y-135818571D01*
X64199523Y-135913810D01*
X64199523Y-136151905D01*
X64151904Y-136247143D01*
X64104285Y-136294762D01*
X64009047Y-136342381D01*
X63723332Y-136342381D01*
X63628094Y-136294762D01*
X63580475Y-136247143D01*
X64628094Y-136247143D02*
X64675713Y-136294762D01*
X64628094Y-136342381D01*
X64580475Y-136294762D01*
X64628094Y-136247143D01*
X64628094Y-136342381D01*
X65009046Y-135342381D02*
X65628094Y-135342381D01*
X65294760Y-135723333D01*
X65437618Y-135723333D01*
X65532856Y-135770952D01*
X65580475Y-135818571D01*
X65628094Y-135913810D01*
X65628094Y-136151905D01*
X65580475Y-136247143D01*
X65532856Y-136294762D01*
X65437618Y-136342381D01*
X65151903Y-136342381D01*
X65056665Y-136294762D01*
X65009046Y-136247143D01*
X65913808Y-135342381D02*
X66247141Y-136342381D01*
X66580475Y-135342381D01*
X67628094Y-136294762D02*
X67723332Y-136342381D01*
X67913808Y-136342381D01*
X68009047Y-136294762D01*
X68056666Y-136199524D01*
X68056666Y-136151905D01*
X68009047Y-136056667D01*
X67913808Y-136009048D01*
X67770951Y-136009048D01*
X67675713Y-135961429D01*
X67628094Y-135866190D01*
X67628094Y-135818571D01*
X67675713Y-135723333D01*
X67770951Y-135675714D01*
X67913808Y-135675714D01*
X68009047Y-135723333D01*
X68628094Y-136342381D02*
X68532856Y-136294762D01*
X68485237Y-136247143D01*
X68437618Y-136151905D01*
X68437618Y-135866190D01*
X68485237Y-135770952D01*
X68532856Y-135723333D01*
X68628094Y-135675714D01*
X68770952Y-135675714D01*
X68866190Y-135723333D01*
X68913809Y-135770952D01*
X68961428Y-135866190D01*
X68961428Y-136151905D01*
X68913809Y-136247143D01*
X68866190Y-136294762D01*
X68770952Y-136342381D01*
X68628094Y-136342381D01*
X69818571Y-135675714D02*
X69818571Y-136342381D01*
X69389999Y-135675714D02*
X69389999Y-136199524D01*
X69437618Y-136294762D01*
X69532856Y-136342381D01*
X69675714Y-136342381D01*
X69770952Y-136294762D01*
X69818571Y-136247143D01*
X70294761Y-136342381D02*
X70294761Y-135675714D01*
X70294761Y-135866190D02*
X70342380Y-135770952D01*
X70389999Y-135723333D01*
X70485237Y-135675714D01*
X70580476Y-135675714D01*
X71342381Y-136294762D02*
X71247143Y-136342381D01*
X71056666Y-136342381D01*
X70961428Y-136294762D01*
X70913809Y-136247143D01*
X70866190Y-136151905D01*
X70866190Y-135866190D01*
X70913809Y-135770952D01*
X70961428Y-135723333D01*
X71056666Y-135675714D01*
X71247143Y-135675714D01*
X71342381Y-135723333D01*
X72151905Y-136294762D02*
X72056667Y-136342381D01*
X71866190Y-136342381D01*
X71770952Y-136294762D01*
X71723333Y-136199524D01*
X71723333Y-135818571D01*
X71770952Y-135723333D01*
X71866190Y-135675714D01*
X72056667Y-135675714D01*
X72151905Y-135723333D01*
X72199524Y-135818571D01*
X72199524Y-135913810D01*
X71723333Y-136009048D01*
X159420997Y-136458609D02*
X158404997Y-136458609D01*
X159420997Y-134934609D02*
X159420997Y-136458609D01*
X159420997Y-128838609D02*
X159420997Y-130362609D01*
X158404997Y-128838609D02*
X159420997Y-128838609D01*
X159932619Y-132167381D02*
X159932619Y-132357858D01*
X159885000Y-132453096D01*
X159789762Y-132548334D01*
X159599286Y-132595953D01*
X159265952Y-132595953D01*
X159075476Y-132548334D01*
X158980238Y-132453096D01*
X158932619Y-132357858D01*
X158932619Y-132167381D01*
X158980238Y-132072143D01*
X159075476Y-131976905D01*
X159265952Y-131929286D01*
X159599286Y-131929286D01*
X159789762Y-131976905D01*
X159885000Y-132072143D01*
X159932619Y-132167381D01*
X159456429Y-133024524D02*
X159456429Y-133357858D01*
X158932619Y-133500715D02*
X158932619Y-133024524D01*
X159932619Y-133024524D01*
X159932619Y-133500715D01*
X147590000Y-116657381D02*
X147590000Y-115657381D01*
X147828095Y-115657381D01*
X147970953Y-115705000D01*
X148066191Y-115800238D01*
X148113810Y-115895476D01*
X148161429Y-116085952D01*
X148161429Y-116228810D01*
X148113810Y-116419286D01*
X148066191Y-116514524D01*
X147970953Y-116609762D01*
X147828095Y-116657381D01*
X147590000Y-116657381D01*
X148590000Y-116657381D02*
X148590000Y-115657381D01*
X149637619Y-116657381D02*
X149304285Y-116181190D01*
X149066190Y-116657381D02*
X149066190Y-115657381D01*
X149447143Y-115657381D01*
X149542381Y-115705000D01*
X149590000Y-115752619D01*
X149637619Y-115847857D01*
X149637619Y-115990714D01*
X149590000Y-116085952D01*
X149542381Y-116133571D01*
X149447143Y-116181190D01*
X149066190Y-116181190D01*
X147939524Y-126769762D02*
X148082381Y-126817381D01*
X148320477Y-126817381D01*
X148415715Y-126769762D01*
X148463334Y-126722143D01*
X148510953Y-126626905D01*
X148510953Y-126531667D01*
X148463334Y-126436429D01*
X148415715Y-126388810D01*
X148320477Y-126341190D01*
X148130000Y-126293571D01*
X148034762Y-126245952D01*
X147987143Y-126198333D01*
X147939524Y-126103095D01*
X147939524Y-126007857D01*
X147987143Y-125912619D01*
X148034762Y-125865000D01*
X148130000Y-125817381D01*
X148368096Y-125817381D01*
X148510953Y-125865000D01*
X148939524Y-126817381D02*
X148939524Y-125817381D01*
X149939524Y-125865000D02*
X149844286Y-125817381D01*
X149701429Y-125817381D01*
X149558571Y-125865000D01*
X149463333Y-125960238D01*
X149415714Y-126055476D01*
X149368095Y-126245952D01*
X149368095Y-126388810D01*
X149415714Y-126579286D01*
X149463333Y-126674524D01*
X149558571Y-126769762D01*
X149701429Y-126817381D01*
X149796667Y-126817381D01*
X149939524Y-126769762D01*
X149987143Y-126722143D01*
X149987143Y-126388810D01*
X149796667Y-126388810D01*
X150368095Y-125912619D02*
X150415714Y-125865000D01*
X150510952Y-125817381D01*
X150749048Y-125817381D01*
X150844286Y-125865000D01*
X150891905Y-125912619D01*
X150939524Y-126007857D01*
X150939524Y-126103095D01*
X150891905Y-126245952D01*
X150320476Y-126817381D01*
X150939524Y-126817381D01*
X148891905Y-124229762D02*
X149034762Y-124277381D01*
X149272858Y-124277381D01*
X149368096Y-124229762D01*
X149415715Y-124182143D01*
X149463334Y-124086905D01*
X149463334Y-123991667D01*
X149415715Y-123896429D01*
X149368096Y-123848810D01*
X149272858Y-123801190D01*
X149082381Y-123753571D01*
X148987143Y-123705952D01*
X148939524Y-123658333D01*
X148891905Y-123563095D01*
X148891905Y-123467857D01*
X148939524Y-123372619D01*
X148987143Y-123325000D01*
X149082381Y-123277381D01*
X149320477Y-123277381D01*
X149463334Y-123325000D01*
X149891905Y-124277381D02*
X149891905Y-123277381D01*
X150891905Y-123325000D02*
X150796667Y-123277381D01*
X150653810Y-123277381D01*
X150510952Y-123325000D01*
X150415714Y-123420238D01*
X150368095Y-123515476D01*
X150320476Y-123705952D01*
X150320476Y-123848810D01*
X150368095Y-124039286D01*
X150415714Y-124134524D01*
X150510952Y-124229762D01*
X150653810Y-124277381D01*
X150749048Y-124277381D01*
X150891905Y-124229762D01*
X150939524Y-124182143D01*
X150939524Y-123848810D01*
X150749048Y-123848810D01*
X147891904Y-121737381D02*
X147891904Y-120737381D01*
X148129999Y-120737381D01*
X148272857Y-120785000D01*
X148368095Y-120880238D01*
X148415714Y-120975476D01*
X148463333Y-121165952D01*
X148463333Y-121308810D01*
X148415714Y-121499286D01*
X148368095Y-121594524D01*
X148272857Y-121689762D01*
X148129999Y-121737381D01*
X147891904Y-121737381D01*
X148844285Y-121451667D02*
X149320476Y-121451667D01*
X148749047Y-121737381D02*
X149082380Y-120737381D01*
X149415714Y-121737381D01*
X149606190Y-120737381D02*
X150177619Y-120737381D01*
X149891904Y-121737381D02*
X149891904Y-120737381D01*
X150463333Y-121451667D02*
X150939524Y-121451667D01*
X150368095Y-121737381D02*
X150701428Y-120737381D01*
X151034762Y-121737381D01*
X147463333Y-118911667D02*
X147939524Y-118911667D01*
X147368095Y-119197381D02*
X147701428Y-118197381D01*
X148034762Y-119197381D01*
X148368095Y-119197381D02*
X148368095Y-118197381D01*
X148606190Y-118197381D01*
X148749048Y-118245000D01*
X148844286Y-118340238D01*
X148891905Y-118435476D01*
X148939524Y-118625952D01*
X148939524Y-118768810D01*
X148891905Y-118959286D01*
X148844286Y-119054524D01*
X148749048Y-119149762D01*
X148606190Y-119197381D01*
X148368095Y-119197381D01*
X149368095Y-119197381D02*
X149368095Y-118197381D01*
X149606190Y-118197381D01*
X149749048Y-118245000D01*
X149844286Y-118340238D01*
X149891905Y-118435476D01*
X149939524Y-118625952D01*
X149939524Y-118768810D01*
X149891905Y-118959286D01*
X149844286Y-119054524D01*
X149749048Y-119149762D01*
X149606190Y-119197381D01*
X149368095Y-119197381D01*
X150939524Y-119197381D02*
X150606190Y-118721190D01*
X150368095Y-119197381D02*
X150368095Y-118197381D01*
X150749048Y-118197381D01*
X150844286Y-118245000D01*
X150891905Y-118292619D01*
X150939524Y-118387857D01*
X150939524Y-118530714D01*
X150891905Y-118625952D01*
X150844286Y-118673571D01*
X150749048Y-118721190D01*
X150368095Y-118721190D01*
X147225000Y-139771429D02*
X147986905Y-139771429D01*
X147605953Y-140152381D02*
X147605953Y-139390476D01*
X148367857Y-139152381D02*
X148986905Y-139152381D01*
X148653571Y-139533333D01*
X148796429Y-139533333D01*
X148891667Y-139580952D01*
X148939286Y-139628571D01*
X148986905Y-139723810D01*
X148986905Y-139961905D01*
X148939286Y-140057143D01*
X148891667Y-140104762D01*
X148796429Y-140152381D01*
X148510714Y-140152381D01*
X148415476Y-140104762D01*
X148367857Y-140057143D01*
X149415476Y-140057143D02*
X149463095Y-140104762D01*
X149415476Y-140152381D01*
X149367857Y-140104762D01*
X149415476Y-140057143D01*
X149415476Y-140152381D01*
X149796428Y-139152381D02*
X150415476Y-139152381D01*
X150082142Y-139533333D01*
X150225000Y-139533333D01*
X150320238Y-139580952D01*
X150367857Y-139628571D01*
X150415476Y-139723810D01*
X150415476Y-139961905D01*
X150367857Y-140057143D01*
X150320238Y-140104762D01*
X150225000Y-140152381D01*
X149939285Y-140152381D01*
X149844047Y-140104762D01*
X149796428Y-140057143D01*
X150701190Y-139152381D02*
X151034523Y-140152381D01*
X151367857Y-139152381D01*
X154813096Y-139200000D02*
X154717858Y-139152381D01*
X154575001Y-139152381D01*
X154432143Y-139200000D01*
X154336905Y-139295238D01*
X154289286Y-139390476D01*
X154241667Y-139580952D01*
X154241667Y-139723810D01*
X154289286Y-139914286D01*
X154336905Y-140009524D01*
X154432143Y-140104762D01*
X154575001Y-140152381D01*
X154670239Y-140152381D01*
X154813096Y-140104762D01*
X154860715Y-140057143D01*
X154860715Y-139723810D01*
X154670239Y-139723810D01*
X155289286Y-140152381D02*
X155289286Y-139152381D01*
X155860715Y-140152381D01*
X155860715Y-139152381D01*
X156336905Y-140152381D02*
X156336905Y-139152381D01*
X156575000Y-139152381D01*
X156717858Y-139200000D01*
X156813096Y-139295238D01*
X156860715Y-139390476D01*
X156908334Y-139580952D01*
X156908334Y-139723810D01*
X156860715Y-139914286D01*
X156813096Y-140009524D01*
X156717858Y-140104762D01*
X156575000Y-140152381D01*
X156336905Y-140152381D01*
X158535715Y-125865000D02*
X158440477Y-125817381D01*
X158297620Y-125817381D01*
X158154762Y-125865000D01*
X158059524Y-125960238D01*
X158011905Y-126055476D01*
X157964286Y-126245952D01*
X157964286Y-126388810D01*
X158011905Y-126579286D01*
X158059524Y-126674524D01*
X158154762Y-126769762D01*
X158297620Y-126817381D01*
X158392858Y-126817381D01*
X158535715Y-126769762D01*
X158583334Y-126722143D01*
X158583334Y-126388810D01*
X158392858Y-126388810D01*
X159440477Y-126150714D02*
X159440477Y-126817381D01*
X159202381Y-125769762D02*
X158964286Y-126484048D01*
X159583334Y-126484048D01*
X158535715Y-123258609D02*
X158440477Y-123210990D01*
X158297620Y-123210990D01*
X158154762Y-123258609D01*
X158059524Y-123353847D01*
X158011905Y-123449085D01*
X157964286Y-123639561D01*
X157964286Y-123782419D01*
X158011905Y-123972895D01*
X158059524Y-124068133D01*
X158154762Y-124163371D01*
X158297620Y-124210990D01*
X158392858Y-124210990D01*
X158535715Y-124163371D01*
X158583334Y-124115752D01*
X158583334Y-123782419D01*
X158392858Y-123782419D01*
X158916667Y-123210990D02*
X159535715Y-123210990D01*
X159202381Y-123591942D01*
X159345239Y-123591942D01*
X159440477Y-123639561D01*
X159488096Y-123687180D01*
X159535715Y-123782419D01*
X159535715Y-124020514D01*
X159488096Y-124115752D01*
X159440477Y-124163371D01*
X159345239Y-124210990D01*
X159059524Y-124210990D01*
X158964286Y-124163371D01*
X158916667Y-124115752D01*
X158535715Y-120718609D02*
X158440477Y-120670990D01*
X158297620Y-120670990D01*
X158154762Y-120718609D01*
X158059524Y-120813847D01*
X158011905Y-120909085D01*
X157964286Y-121099561D01*
X157964286Y-121242419D01*
X158011905Y-121432895D01*
X158059524Y-121528133D01*
X158154762Y-121623371D01*
X158297620Y-121670990D01*
X158392858Y-121670990D01*
X158535715Y-121623371D01*
X158583334Y-121575752D01*
X158583334Y-121242419D01*
X158392858Y-121242419D01*
X158964286Y-120766228D02*
X159011905Y-120718609D01*
X159107143Y-120670990D01*
X159345239Y-120670990D01*
X159440477Y-120718609D01*
X159488096Y-120766228D01*
X159535715Y-120861466D01*
X159535715Y-120956704D01*
X159488096Y-121099561D01*
X158916667Y-121670990D01*
X159535715Y-121670990D01*
X158535715Y-118245000D02*
X158440477Y-118197381D01*
X158297620Y-118197381D01*
X158154762Y-118245000D01*
X158059524Y-118340238D01*
X158011905Y-118435476D01*
X157964286Y-118625952D01*
X157964286Y-118768810D01*
X158011905Y-118959286D01*
X158059524Y-119054524D01*
X158154762Y-119149762D01*
X158297620Y-119197381D01*
X158392858Y-119197381D01*
X158535715Y-119149762D01*
X158583334Y-119102143D01*
X158583334Y-118768810D01*
X158392858Y-118768810D01*
X159535715Y-119197381D02*
X158964286Y-119197381D01*
X159250000Y-119197381D02*
X159250000Y-118197381D01*
X159154762Y-118340238D01*
X159059524Y-118435476D01*
X158964286Y-118483095D01*
X137930000Y-131190714D02*
X137882381Y-131285952D01*
X137882381Y-131428809D01*
X137930000Y-131571667D01*
X138025238Y-131666905D01*
X138120476Y-131714524D01*
X138310952Y-131762143D01*
X138453810Y-131762143D01*
X138644286Y-131714524D01*
X138739524Y-131666905D01*
X138834762Y-131571667D01*
X138882381Y-131428809D01*
X138882381Y-131333571D01*
X138834762Y-131190714D01*
X138787143Y-131143095D01*
X138453810Y-131143095D01*
X138453810Y-131333571D01*
X138882381Y-130714524D02*
X137882381Y-130714524D01*
X138882381Y-130143095D01*
X137882381Y-130143095D01*
X138882381Y-129666905D02*
X137882381Y-129666905D01*
X137882381Y-129428810D01*
X137930000Y-129285952D01*
X138025238Y-129190714D01*
X138120476Y-129143095D01*
X138310952Y-129095476D01*
X138453810Y-129095476D01*
X138644286Y-129143095D01*
X138739524Y-129190714D01*
X138834762Y-129285952D01*
X138882381Y-129428810D01*
X138882381Y-129666905D01*
X137930000Y-117983870D02*
X137882381Y-118079108D01*
X137882381Y-118221965D01*
X137930000Y-118364823D01*
X138025238Y-118460061D01*
X138120476Y-118507680D01*
X138310952Y-118555299D01*
X138453810Y-118555299D01*
X138644286Y-118507680D01*
X138739524Y-118460061D01*
X138834762Y-118364823D01*
X138882381Y-118221965D01*
X138882381Y-118126727D01*
X138834762Y-117983870D01*
X138787143Y-117936251D01*
X138453810Y-117936251D01*
X138453810Y-118126727D01*
X138882381Y-117507680D02*
X137882381Y-117507680D01*
X138882381Y-116936251D01*
X137882381Y-116936251D01*
X138882381Y-116460061D02*
X137882381Y-116460061D01*
X137882381Y-116221966D01*
X137930000Y-116079108D01*
X138025238Y-115983870D01*
X138120476Y-115936251D01*
X138310952Y-115888632D01*
X138453810Y-115888632D01*
X138644286Y-115936251D01*
X138739524Y-115983870D01*
X138834762Y-116079108D01*
X138882381Y-116221966D01*
X138882381Y-116460061D01*
X80081429Y-133143095D02*
X80081429Y-132381190D01*
X80462381Y-132762142D02*
X79700476Y-132762142D01*
X79462381Y-132000238D02*
X79462381Y-131381190D01*
X79843333Y-131714524D01*
X79843333Y-131571666D01*
X79890952Y-131476428D01*
X79938571Y-131428809D01*
X80033810Y-131381190D01*
X80271905Y-131381190D01*
X80367143Y-131428809D01*
X80414762Y-131476428D01*
X80462381Y-131571666D01*
X80462381Y-131857381D01*
X80414762Y-131952619D01*
X80367143Y-132000238D01*
X80367143Y-130952619D02*
X80414762Y-130905000D01*
X80462381Y-130952619D01*
X80414762Y-131000238D01*
X80367143Y-130952619D01*
X80462381Y-130952619D01*
X79462381Y-130571667D02*
X79462381Y-129952619D01*
X79843333Y-130285953D01*
X79843333Y-130143095D01*
X79890952Y-130047857D01*
X79938571Y-130000238D01*
X80033810Y-129952619D01*
X80271905Y-129952619D01*
X80367143Y-130000238D01*
X80414762Y-130047857D01*
X80462381Y-130143095D01*
X80462381Y-130428810D01*
X80414762Y-130524048D01*
X80367143Y-130571667D01*
X79462381Y-129666905D02*
X80462381Y-129333572D01*
X79462381Y-129000238D01*
X79510000Y-117983095D02*
X79462381Y-118078333D01*
X79462381Y-118221190D01*
X79510000Y-118364048D01*
X79605238Y-118459286D01*
X79700476Y-118506905D01*
X79890952Y-118554524D01*
X80033810Y-118554524D01*
X80224286Y-118506905D01*
X80319524Y-118459286D01*
X80414762Y-118364048D01*
X80462381Y-118221190D01*
X80462381Y-118125952D01*
X80414762Y-117983095D01*
X80367143Y-117935476D01*
X80033810Y-117935476D01*
X80033810Y-118125952D01*
X80462381Y-117506905D02*
X79462381Y-117506905D01*
X80462381Y-116935476D01*
X79462381Y-116935476D01*
X80462381Y-116459286D02*
X79462381Y-116459286D01*
X79462381Y-116221191D01*
X79510000Y-116078333D01*
X79605238Y-115983095D01*
X79700476Y-115935476D01*
X79890952Y-115887857D01*
X80033810Y-115887857D01*
X80224286Y-115935476D01*
X80319524Y-115983095D01*
X80414762Y-116078333D01*
X80462381Y-116221191D01*
X80462381Y-116459286D01*
X125230000Y-117983095D02*
X125182381Y-118078333D01*
X125182381Y-118221190D01*
X125230000Y-118364048D01*
X125325238Y-118459286D01*
X125420476Y-118506905D01*
X125610952Y-118554524D01*
X125753810Y-118554524D01*
X125944286Y-118506905D01*
X126039524Y-118459286D01*
X126134762Y-118364048D01*
X126182381Y-118221190D01*
X126182381Y-118125952D01*
X126134762Y-117983095D01*
X126087143Y-117935476D01*
X125753810Y-117935476D01*
X125753810Y-118125952D01*
X125515714Y-117078333D02*
X126182381Y-117078333D01*
X125134762Y-117316429D02*
X125849048Y-117554524D01*
X125849048Y-116935476D01*
X125230000Y-130095476D02*
X125182381Y-130190714D01*
X125182381Y-130333571D01*
X125230000Y-130476429D01*
X125325238Y-130571667D01*
X125420476Y-130619286D01*
X125610952Y-130666905D01*
X125753810Y-130666905D01*
X125944286Y-130619286D01*
X126039524Y-130571667D01*
X126134762Y-130476429D01*
X126182381Y-130333571D01*
X126182381Y-130238333D01*
X126134762Y-130095476D01*
X126087143Y-130047857D01*
X125753810Y-130047857D01*
X125753810Y-130238333D01*
X125277619Y-129666905D02*
X125230000Y-129619286D01*
X125182381Y-129524048D01*
X125182381Y-129285952D01*
X125230000Y-129190714D01*
X125277619Y-129143095D01*
X125372857Y-129095476D01*
X125468095Y-129095476D01*
X125610952Y-129143095D01*
X126182381Y-129714524D01*
X126182381Y-129095476D01*
X122690000Y-117983095D02*
X122642381Y-118078333D01*
X122642381Y-118221190D01*
X122690000Y-118364048D01*
X122785238Y-118459286D01*
X122880476Y-118506905D01*
X123070952Y-118554524D01*
X123213810Y-118554524D01*
X123404286Y-118506905D01*
X123499524Y-118459286D01*
X123594762Y-118364048D01*
X123642381Y-118221190D01*
X123642381Y-118125952D01*
X123594762Y-117983095D01*
X123547143Y-117935476D01*
X123213810Y-117935476D01*
X123213810Y-118125952D01*
X122642381Y-117602143D02*
X122642381Y-116983095D01*
X123023333Y-117316429D01*
X123023333Y-117173571D01*
X123070952Y-117078333D01*
X123118571Y-117030714D01*
X123213810Y-116983095D01*
X123451905Y-116983095D01*
X123547143Y-117030714D01*
X123594762Y-117078333D01*
X123642381Y-117173571D01*
X123642381Y-117459286D01*
X123594762Y-117554524D01*
X123547143Y-117602143D01*
X122690000Y-130095476D02*
X122642381Y-130190714D01*
X122642381Y-130333571D01*
X122690000Y-130476429D01*
X122785238Y-130571667D01*
X122880476Y-130619286D01*
X123070952Y-130666905D01*
X123213810Y-130666905D01*
X123404286Y-130619286D01*
X123499524Y-130571667D01*
X123594762Y-130476429D01*
X123642381Y-130333571D01*
X123642381Y-130238333D01*
X123594762Y-130095476D01*
X123547143Y-130047857D01*
X123213810Y-130047857D01*
X123213810Y-130238333D01*
X123642381Y-129095476D02*
X123642381Y-129666905D01*
X123642381Y-129381191D02*
X122642381Y-129381191D01*
X122785238Y-129476429D01*
X122880476Y-129571667D01*
X122928095Y-129666905D01*
X121102381Y-118506905D02*
X120102381Y-118506905D01*
X120102381Y-118268810D01*
X120150000Y-118125952D01*
X120245238Y-118030714D01*
X120340476Y-117983095D01*
X120530952Y-117935476D01*
X120673810Y-117935476D01*
X120864286Y-117983095D01*
X120959524Y-118030714D01*
X121054762Y-118125952D01*
X121102381Y-118268810D01*
X121102381Y-118506905D01*
X120102381Y-117602143D02*
X120102381Y-116935476D01*
X121102381Y-117364048D01*
X121102381Y-130619286D02*
X120102381Y-130619286D01*
X120102381Y-130381191D01*
X120150000Y-130238333D01*
X120245238Y-130143095D01*
X120340476Y-130095476D01*
X120530952Y-130047857D01*
X120673810Y-130047857D01*
X120864286Y-130095476D01*
X120959524Y-130143095D01*
X121054762Y-130238333D01*
X121102381Y-130381191D01*
X121102381Y-130619286D01*
X120102381Y-129190714D02*
X120102381Y-129381191D01*
X120150000Y-129476429D01*
X120197619Y-129524048D01*
X120340476Y-129619286D01*
X120530952Y-129666905D01*
X120911905Y-129666905D01*
X121007143Y-129619286D01*
X121054762Y-129571667D01*
X121102381Y-129476429D01*
X121102381Y-129285952D01*
X121054762Y-129190714D01*
X121007143Y-129143095D01*
X120911905Y-129095476D01*
X120673810Y-129095476D01*
X120578571Y-129143095D01*
X120530952Y-129190714D01*
X120483333Y-129285952D01*
X120483333Y-129476429D01*
X120530952Y-129571667D01*
X120578571Y-129619286D01*
X120673810Y-129666905D01*
X118562381Y-118506905D02*
X117562381Y-118506905D01*
X117562381Y-118268810D01*
X117610000Y-118125952D01*
X117705238Y-118030714D01*
X117800476Y-117983095D01*
X117990952Y-117935476D01*
X118133810Y-117935476D01*
X118324286Y-117983095D01*
X118419524Y-118030714D01*
X118514762Y-118125952D01*
X118562381Y-118268810D01*
X118562381Y-118506905D01*
X117562381Y-117030714D02*
X117562381Y-117506905D01*
X118038571Y-117554524D01*
X117990952Y-117506905D01*
X117943333Y-117411667D01*
X117943333Y-117173571D01*
X117990952Y-117078333D01*
X118038571Y-117030714D01*
X118133810Y-116983095D01*
X118371905Y-116983095D01*
X118467143Y-117030714D01*
X118514762Y-117078333D01*
X118562381Y-117173571D01*
X118562381Y-117411667D01*
X118514762Y-117506905D01*
X118467143Y-117554524D01*
X118562381Y-130619286D02*
X117562381Y-130619286D01*
X117562381Y-130381191D01*
X117610000Y-130238333D01*
X117705238Y-130143095D01*
X117800476Y-130095476D01*
X117990952Y-130047857D01*
X118133810Y-130047857D01*
X118324286Y-130095476D01*
X118419524Y-130143095D01*
X118514762Y-130238333D01*
X118562381Y-130381191D01*
X118562381Y-130619286D01*
X117895714Y-129190714D02*
X118562381Y-129190714D01*
X117514762Y-129428810D02*
X118229048Y-129666905D01*
X118229048Y-129047857D01*
X116022381Y-118506905D02*
X115022381Y-118506905D01*
X115022381Y-118268810D01*
X115070000Y-118125952D01*
X115165238Y-118030714D01*
X115260476Y-117983095D01*
X115450952Y-117935476D01*
X115593810Y-117935476D01*
X115784286Y-117983095D01*
X115879524Y-118030714D01*
X115974762Y-118125952D01*
X116022381Y-118268810D01*
X116022381Y-118506905D01*
X115022381Y-117602143D02*
X115022381Y-116983095D01*
X115403333Y-117316429D01*
X115403333Y-117173571D01*
X115450952Y-117078333D01*
X115498571Y-117030714D01*
X115593810Y-116983095D01*
X115831905Y-116983095D01*
X115927143Y-117030714D01*
X115974762Y-117078333D01*
X116022381Y-117173571D01*
X116022381Y-117459286D01*
X115974762Y-117554524D01*
X115927143Y-117602143D01*
X116022381Y-130619286D02*
X115022381Y-130619286D01*
X115022381Y-130381191D01*
X115070000Y-130238333D01*
X115165238Y-130143095D01*
X115260476Y-130095476D01*
X115450952Y-130047857D01*
X115593810Y-130047857D01*
X115784286Y-130095476D01*
X115879524Y-130143095D01*
X115974762Y-130238333D01*
X116022381Y-130381191D01*
X116022381Y-130619286D01*
X115117619Y-129666905D02*
X115070000Y-129619286D01*
X115022381Y-129524048D01*
X115022381Y-129285952D01*
X115070000Y-129190714D01*
X115117619Y-129143095D01*
X115212857Y-129095476D01*
X115308095Y-129095476D01*
X115450952Y-129143095D01*
X116022381Y-129714524D01*
X116022381Y-129095476D01*
X113482381Y-118506905D02*
X112482381Y-118506905D01*
X112482381Y-118268810D01*
X112530000Y-118125952D01*
X112625238Y-118030714D01*
X112720476Y-117983095D01*
X112910952Y-117935476D01*
X113053810Y-117935476D01*
X113244286Y-117983095D01*
X113339524Y-118030714D01*
X113434762Y-118125952D01*
X113482381Y-118268810D01*
X113482381Y-118506905D01*
X113482381Y-116983095D02*
X113482381Y-117554524D01*
X113482381Y-117268810D02*
X112482381Y-117268810D01*
X112625238Y-117364048D01*
X112720476Y-117459286D01*
X112768095Y-117554524D01*
X113482381Y-130619286D02*
X112482381Y-130619286D01*
X112482381Y-130381191D01*
X112530000Y-130238333D01*
X112625238Y-130143095D01*
X112720476Y-130095476D01*
X112910952Y-130047857D01*
X113053810Y-130047857D01*
X113244286Y-130095476D01*
X113339524Y-130143095D01*
X113434762Y-130238333D01*
X113482381Y-130381191D01*
X113482381Y-130619286D01*
X112482381Y-129428810D02*
X112482381Y-129333571D01*
X112530000Y-129238333D01*
X112577619Y-129190714D01*
X112672857Y-129143095D01*
X112863333Y-129095476D01*
X113101429Y-129095476D01*
X113291905Y-129143095D01*
X113387143Y-129190714D01*
X113434762Y-129238333D01*
X113482381Y-129333571D01*
X113482381Y-129428810D01*
X113434762Y-129524048D01*
X113387143Y-129571667D01*
X113291905Y-129619286D01*
X113101429Y-129666905D01*
X112863333Y-129666905D01*
X112672857Y-129619286D01*
X112577619Y-129571667D01*
X112530000Y-129524048D01*
X112482381Y-129428810D01*
X110942381Y-131857381D02*
X109942381Y-131857381D01*
X110656667Y-131524047D01*
X109942381Y-131190714D01*
X110942381Y-131190714D01*
X110942381Y-130143095D02*
X110466190Y-130476429D01*
X110942381Y-130714524D02*
X109942381Y-130714524D01*
X109942381Y-130333571D01*
X109990000Y-130238333D01*
X110037619Y-130190714D01*
X110132857Y-130143095D01*
X110275714Y-130143095D01*
X110370952Y-130190714D01*
X110418571Y-130238333D01*
X110466190Y-130333571D01*
X110466190Y-130714524D01*
X111037619Y-129047857D02*
X110990000Y-129143095D01*
X110894762Y-129238333D01*
X110751905Y-129381190D01*
X110704286Y-129476429D01*
X110704286Y-129571667D01*
X110942381Y-129524048D02*
X110894762Y-129619286D01*
X110799524Y-129714524D01*
X110609048Y-129762143D01*
X110275714Y-129762143D01*
X110085238Y-129714524D01*
X109990000Y-129619286D01*
X109942381Y-129524048D01*
X109942381Y-129333571D01*
X109990000Y-129238333D01*
X110085238Y-129143095D01*
X110275714Y-129095476D01*
X110609048Y-129095476D01*
X110799524Y-129143095D01*
X110894762Y-129238333D01*
X110942381Y-129333571D01*
X110942381Y-129524048D01*
X108307143Y-130905000D02*
X108354762Y-130952619D01*
X108402381Y-131095476D01*
X108402381Y-131190714D01*
X108354762Y-131333572D01*
X108259524Y-131428810D01*
X108164286Y-131476429D01*
X107973810Y-131524048D01*
X107830952Y-131524048D01*
X107640476Y-131476429D01*
X107545238Y-131428810D01*
X107450000Y-131333572D01*
X107402381Y-131190714D01*
X107402381Y-131095476D01*
X107450000Y-130952619D01*
X107497619Y-130905000D01*
X108402381Y-130000238D02*
X108402381Y-130476429D01*
X107402381Y-130476429D01*
X108402381Y-129666905D02*
X107402381Y-129666905D01*
X108402381Y-129095476D02*
X107830952Y-129524048D01*
X107402381Y-129095476D02*
X107973810Y-129666905D01*
X109942381Y-118602143D02*
X110942381Y-118364048D01*
X110228095Y-118173571D01*
X110942381Y-117983095D01*
X109942381Y-117745000D01*
X110942381Y-116792619D02*
X110466190Y-117125953D01*
X110942381Y-117364048D02*
X109942381Y-117364048D01*
X109942381Y-116983095D01*
X109990000Y-116887857D01*
X110037619Y-116840238D01*
X110132857Y-116792619D01*
X110275714Y-116792619D01*
X110370952Y-116840238D01*
X110418571Y-116887857D01*
X110466190Y-116983095D01*
X110466190Y-117364048D01*
X108402381Y-118506905D02*
X107402381Y-118506905D01*
X108402381Y-118030715D02*
X107402381Y-118030715D01*
X108402381Y-117459286D01*
X107402381Y-117459286D01*
X107402381Y-117125953D02*
X107402381Y-116554524D01*
X108402381Y-116840239D02*
X107402381Y-116840239D01*
X105862381Y-117935476D02*
X105386190Y-118268810D01*
X105862381Y-118506905D02*
X104862381Y-118506905D01*
X104862381Y-118125952D01*
X104910000Y-118030714D01*
X104957619Y-117983095D01*
X105052857Y-117935476D01*
X105195714Y-117935476D01*
X105290952Y-117983095D01*
X105338571Y-118030714D01*
X105386190Y-118125952D01*
X105386190Y-118506905D01*
X105814762Y-117554524D02*
X105862381Y-117411667D01*
X105862381Y-117173571D01*
X105814762Y-117078333D01*
X105767143Y-117030714D01*
X105671905Y-116983095D01*
X105576667Y-116983095D01*
X105481429Y-117030714D01*
X105433810Y-117078333D01*
X105386190Y-117173571D01*
X105338571Y-117364048D01*
X105290952Y-117459286D01*
X105243333Y-117506905D01*
X105148095Y-117554524D01*
X105052857Y-117554524D01*
X104957619Y-117506905D01*
X104910000Y-117459286D01*
X104862381Y-117364048D01*
X104862381Y-117125952D01*
X104910000Y-116983095D01*
X104862381Y-116697381D02*
X104862381Y-116125952D01*
X105862381Y-116411667D02*
X104862381Y-116411667D01*
X105862381Y-130762143D02*
X104862381Y-130762143D01*
X105576667Y-130428809D01*
X104862381Y-130095476D01*
X105862381Y-130095476D01*
X105862381Y-129095476D02*
X105862381Y-129666905D01*
X105862381Y-129381191D02*
X104862381Y-129381191D01*
X105005238Y-129476429D01*
X105100476Y-129571667D01*
X105148095Y-129666905D01*
X103322381Y-118506905D02*
X102322381Y-118506905D01*
X102322381Y-117840239D02*
X102322381Y-117649762D01*
X102370000Y-117554524D01*
X102465238Y-117459286D01*
X102655714Y-117411667D01*
X102989048Y-117411667D01*
X103179524Y-117459286D01*
X103274762Y-117554524D01*
X103322381Y-117649762D01*
X103322381Y-117840239D01*
X103274762Y-117935477D01*
X103179524Y-118030715D01*
X102989048Y-118078334D01*
X102655714Y-118078334D01*
X102465238Y-118030715D01*
X102370000Y-117935477D01*
X102322381Y-117840239D01*
X103322381Y-116411667D02*
X102846190Y-116745001D01*
X103322381Y-116983096D02*
X102322381Y-116983096D01*
X102322381Y-116602143D01*
X102370000Y-116506905D01*
X102417619Y-116459286D01*
X102512857Y-116411667D01*
X102655714Y-116411667D01*
X102750952Y-116459286D01*
X102798571Y-116506905D01*
X102846190Y-116602143D01*
X102846190Y-116983096D01*
X103417619Y-115316429D02*
X103370000Y-115411667D01*
X103274762Y-115506905D01*
X103131905Y-115649762D01*
X103084286Y-115745001D01*
X103084286Y-115840239D01*
X103322381Y-115792620D02*
X103274762Y-115887858D01*
X103179524Y-115983096D01*
X102989048Y-116030715D01*
X102655714Y-116030715D01*
X102465238Y-115983096D01*
X102370000Y-115887858D01*
X102322381Y-115792620D01*
X102322381Y-115602143D01*
X102370000Y-115506905D01*
X102465238Y-115411667D01*
X102655714Y-115364048D01*
X102989048Y-115364048D01*
X103179524Y-115411667D01*
X103274762Y-115506905D01*
X103322381Y-115602143D01*
X103322381Y-115792620D01*
X103322381Y-130095476D02*
X102846190Y-130428810D01*
X103322381Y-130666905D02*
X102322381Y-130666905D01*
X102322381Y-130285952D01*
X102370000Y-130190714D01*
X102417619Y-130143095D01*
X102512857Y-130095476D01*
X102655714Y-130095476D01*
X102750952Y-130143095D01*
X102798571Y-130190714D01*
X102846190Y-130285952D01*
X102846190Y-130666905D01*
X103322381Y-129666905D02*
X102322381Y-129666905D01*
X102322381Y-129428810D01*
X102370000Y-129285952D01*
X102465238Y-129190714D01*
X102560476Y-129143095D01*
X102750952Y-129095476D01*
X102893810Y-129095476D01*
X103084286Y-129143095D01*
X103179524Y-129190714D01*
X103274762Y-129285952D01*
X103322381Y-129428810D01*
X103322381Y-129666905D01*
X100496667Y-130524048D02*
X100496667Y-130047857D01*
X100782381Y-130619286D02*
X99782381Y-130285953D01*
X100782381Y-129952619D01*
X99782381Y-129428810D02*
X99782381Y-129333571D01*
X99830000Y-129238333D01*
X99877619Y-129190714D01*
X99972857Y-129143095D01*
X100163333Y-129095476D01*
X100401429Y-129095476D01*
X100591905Y-129143095D01*
X100687143Y-129190714D01*
X100734762Y-129238333D01*
X100782381Y-129333571D01*
X100782381Y-129428810D01*
X100734762Y-129524048D01*
X100687143Y-129571667D01*
X100591905Y-129619286D01*
X100401429Y-129666905D01*
X100163333Y-129666905D01*
X99972857Y-129619286D01*
X99877619Y-129571667D01*
X99830000Y-129524048D01*
X99782381Y-129428810D01*
X100496667Y-118554524D02*
X100496667Y-118078333D01*
X100782381Y-118649762D02*
X99782381Y-118316429D01*
X100782381Y-117983095D01*
X100782381Y-117125952D02*
X100782381Y-117697381D01*
X100782381Y-117411667D02*
X99782381Y-117411667D01*
X99925238Y-117506905D01*
X100020476Y-117602143D01*
X100068095Y-117697381D01*
X97956667Y-130524048D02*
X97956667Y-130047857D01*
X98242381Y-130619286D02*
X97242381Y-130285953D01*
X98242381Y-129952619D01*
X97337619Y-129666905D02*
X97290000Y-129619286D01*
X97242381Y-129524048D01*
X97242381Y-129285952D01*
X97290000Y-129190714D01*
X97337619Y-129143095D01*
X97432857Y-129095476D01*
X97528095Y-129095476D01*
X97670952Y-129143095D01*
X98242381Y-129714524D01*
X98242381Y-129095476D01*
X97956667Y-118554524D02*
X97956667Y-118078333D01*
X98242381Y-118649762D02*
X97242381Y-118316429D01*
X98242381Y-117983095D01*
X97242381Y-117745000D02*
X97242381Y-117125952D01*
X97623333Y-117459286D01*
X97623333Y-117316428D01*
X97670952Y-117221190D01*
X97718571Y-117173571D01*
X97813810Y-117125952D01*
X98051905Y-117125952D01*
X98147143Y-117173571D01*
X98194762Y-117221190D01*
X98242381Y-117316428D01*
X98242381Y-117602143D01*
X98194762Y-117697381D01*
X98147143Y-117745000D01*
X95416667Y-130524048D02*
X95416667Y-130047857D01*
X95702381Y-130619286D02*
X94702381Y-130285953D01*
X95702381Y-129952619D01*
X95035714Y-129190714D02*
X95702381Y-129190714D01*
X94654762Y-129428810D02*
X95369048Y-129666905D01*
X95369048Y-129047857D01*
X95416667Y-118554524D02*
X95416667Y-118078333D01*
X95702381Y-118649762D02*
X94702381Y-118316429D01*
X95702381Y-117983095D01*
X94702381Y-117173571D02*
X94702381Y-117649762D01*
X95178571Y-117697381D01*
X95130952Y-117649762D01*
X95083333Y-117554524D01*
X95083333Y-117316428D01*
X95130952Y-117221190D01*
X95178571Y-117173571D01*
X95273810Y-117125952D01*
X95511905Y-117125952D01*
X95607143Y-117173571D01*
X95654762Y-117221190D01*
X95702381Y-117316428D01*
X95702381Y-117554524D01*
X95654762Y-117649762D01*
X95607143Y-117697381D01*
X92876667Y-130524048D02*
X92876667Y-130047857D01*
X93162381Y-130619286D02*
X92162381Y-130285953D01*
X93162381Y-129952619D01*
X92162381Y-129190714D02*
X92162381Y-129381191D01*
X92210000Y-129476429D01*
X92257619Y-129524048D01*
X92400476Y-129619286D01*
X92590952Y-129666905D01*
X92971905Y-129666905D01*
X93067143Y-129619286D01*
X93114762Y-129571667D01*
X93162381Y-129476429D01*
X93162381Y-129285952D01*
X93114762Y-129190714D01*
X93067143Y-129143095D01*
X92971905Y-129095476D01*
X92733810Y-129095476D01*
X92638571Y-129143095D01*
X92590952Y-129190714D01*
X92543333Y-129285952D01*
X92543333Y-129476429D01*
X92590952Y-129571667D01*
X92638571Y-129619286D01*
X92733810Y-129666905D01*
X92876667Y-118554524D02*
X92876667Y-118078333D01*
X93162381Y-118649762D02*
X92162381Y-118316429D01*
X93162381Y-117983095D01*
X92162381Y-117745000D02*
X92162381Y-117078333D01*
X93162381Y-117506905D01*
X90336667Y-130524048D02*
X90336667Y-130047857D01*
X90622381Y-130619286D02*
X89622381Y-130285953D01*
X90622381Y-129952619D01*
X90050952Y-129476429D02*
X90003333Y-129571667D01*
X89955714Y-129619286D01*
X89860476Y-129666905D01*
X89812857Y-129666905D01*
X89717619Y-129619286D01*
X89670000Y-129571667D01*
X89622381Y-129476429D01*
X89622381Y-129285952D01*
X89670000Y-129190714D01*
X89717619Y-129143095D01*
X89812857Y-129095476D01*
X89860476Y-129095476D01*
X89955714Y-129143095D01*
X90003333Y-129190714D01*
X90050952Y-129285952D01*
X90050952Y-129476429D01*
X90098571Y-129571667D01*
X90146190Y-129619286D01*
X90241429Y-129666905D01*
X90431905Y-129666905D01*
X90527143Y-129619286D01*
X90574762Y-129571667D01*
X90622381Y-129476429D01*
X90622381Y-129285952D01*
X90574762Y-129190714D01*
X90527143Y-129143095D01*
X90431905Y-129095476D01*
X90241429Y-129095476D01*
X90146190Y-129143095D01*
X90098571Y-129190714D01*
X90050952Y-129285952D01*
X90336667Y-118554524D02*
X90336667Y-118078333D01*
X90622381Y-118649762D02*
X89622381Y-118316429D01*
X90622381Y-117983095D01*
X90622381Y-117602143D02*
X90622381Y-117411667D01*
X90574762Y-117316428D01*
X90527143Y-117268809D01*
X90384286Y-117173571D01*
X90193810Y-117125952D01*
X89812857Y-117125952D01*
X89717619Y-117173571D01*
X89670000Y-117221190D01*
X89622381Y-117316428D01*
X89622381Y-117506905D01*
X89670000Y-117602143D01*
X89717619Y-117649762D01*
X89812857Y-117697381D01*
X90050952Y-117697381D01*
X90146190Y-117649762D01*
X90193810Y-117602143D01*
X90241429Y-117506905D01*
X90241429Y-117316428D01*
X90193810Y-117221190D01*
X90146190Y-117173571D01*
X90050952Y-117125952D01*
X87796667Y-131476429D02*
X87796667Y-131000238D01*
X88082381Y-131571667D02*
X87082381Y-131238334D01*
X88082381Y-130905000D01*
X88082381Y-130047857D02*
X88082381Y-130619286D01*
X88082381Y-130333572D02*
X87082381Y-130333572D01*
X87225238Y-130428810D01*
X87320476Y-130524048D01*
X87368095Y-130619286D01*
X87082381Y-129428810D02*
X87082381Y-129333571D01*
X87130000Y-129238333D01*
X87177619Y-129190714D01*
X87272857Y-129143095D01*
X87463333Y-129095476D01*
X87701429Y-129095476D01*
X87891905Y-129143095D01*
X87987143Y-129190714D01*
X88034762Y-129238333D01*
X88082381Y-129333571D01*
X88082381Y-129428810D01*
X88034762Y-129524048D01*
X87987143Y-129571667D01*
X87891905Y-129619286D01*
X87701429Y-129666905D01*
X87463333Y-129666905D01*
X87272857Y-129619286D01*
X87177619Y-129571667D01*
X87130000Y-129524048D01*
X87082381Y-129428810D01*
X87796667Y-118554524D02*
X87796667Y-118078333D01*
X88082381Y-118649762D02*
X87082381Y-118316429D01*
X88082381Y-117983095D01*
X88082381Y-117125952D02*
X88082381Y-117697381D01*
X88082381Y-117411667D02*
X87082381Y-117411667D01*
X87225238Y-117506905D01*
X87320476Y-117602143D01*
X87368095Y-117697381D01*
X88082381Y-116173571D02*
X88082381Y-116745000D01*
X88082381Y-116459286D02*
X87082381Y-116459286D01*
X87225238Y-116554524D01*
X87320476Y-116649762D01*
X87368095Y-116745000D01*
X85256667Y-131476429D02*
X85256667Y-131000238D01*
X85542381Y-131571667D02*
X84542381Y-131238334D01*
X85542381Y-130905000D01*
X85542381Y-130047857D02*
X85542381Y-130619286D01*
X85542381Y-130333572D02*
X84542381Y-130333572D01*
X84685238Y-130428810D01*
X84780476Y-130524048D01*
X84828095Y-130619286D01*
X84637619Y-129666905D02*
X84590000Y-129619286D01*
X84542381Y-129524048D01*
X84542381Y-129285952D01*
X84590000Y-129190714D01*
X84637619Y-129143095D01*
X84732857Y-129095476D01*
X84828095Y-129095476D01*
X84970952Y-129143095D01*
X85542381Y-129714524D01*
X85542381Y-129095476D01*
X85256667Y-118554524D02*
X85256667Y-118078333D01*
X85542381Y-118649762D02*
X84542381Y-118316429D01*
X85542381Y-117983095D01*
X85542381Y-117125952D02*
X85542381Y-117697381D01*
X85542381Y-117411667D02*
X84542381Y-117411667D01*
X84685238Y-117506905D01*
X84780476Y-117602143D01*
X84828095Y-117697381D01*
X84542381Y-116792619D02*
X84542381Y-116173571D01*
X84923333Y-116506905D01*
X84923333Y-116364047D01*
X84970952Y-116268809D01*
X85018571Y-116221190D01*
X85113810Y-116173571D01*
X85351905Y-116173571D01*
X85447143Y-116221190D01*
X85494762Y-116268809D01*
X85542381Y-116364047D01*
X85542381Y-116649762D01*
X85494762Y-116745000D01*
X85447143Y-116792619D01*
X82716667Y-131476429D02*
X82716667Y-131000238D01*
X83002381Y-131571667D02*
X82002381Y-131238334D01*
X83002381Y-130905000D01*
X83002381Y-130047857D02*
X83002381Y-130619286D01*
X83002381Y-130333572D02*
X82002381Y-130333572D01*
X82145238Y-130428810D01*
X82240476Y-130524048D01*
X82288095Y-130619286D01*
X82335714Y-129190714D02*
X83002381Y-129190714D01*
X81954762Y-129428810D02*
X82669048Y-129666905D01*
X82669048Y-129047857D01*
X146502381Y-161393095D02*
X145502381Y-161393095D01*
X145502381Y-161155000D01*
X145550000Y-161012142D01*
X145645238Y-160916904D01*
X145740476Y-160869285D01*
X145930952Y-160821666D01*
X146073810Y-160821666D01*
X146264286Y-160869285D01*
X146359524Y-160916904D01*
X146454762Y-161012142D01*
X146502381Y-161155000D01*
X146502381Y-161393095D01*
X145502381Y-160488333D02*
X145502381Y-159821666D01*
X146502381Y-160250238D01*
X143962381Y-161393095D02*
X142962381Y-161393095D01*
X142962381Y-161155000D01*
X143010000Y-161012142D01*
X143105238Y-160916904D01*
X143200476Y-160869285D01*
X143390952Y-160821666D01*
X143533810Y-160821666D01*
X143724286Y-160869285D01*
X143819524Y-160916904D01*
X143914762Y-161012142D01*
X143962381Y-161155000D01*
X143962381Y-161393095D01*
X142962381Y-159964523D02*
X142962381Y-160155000D01*
X143010000Y-160250238D01*
X143057619Y-160297857D01*
X143200476Y-160393095D01*
X143390952Y-160440714D01*
X143771905Y-160440714D01*
X143867143Y-160393095D01*
X143914762Y-160345476D01*
X143962381Y-160250238D01*
X143962381Y-160059761D01*
X143914762Y-159964523D01*
X143867143Y-159916904D01*
X143771905Y-159869285D01*
X143533810Y-159869285D01*
X143438571Y-159916904D01*
X143390952Y-159964523D01*
X143343333Y-160059761D01*
X143343333Y-160250238D01*
X143390952Y-160345476D01*
X143438571Y-160393095D01*
X143533810Y-160440714D01*
X141422381Y-161393095D02*
X140422381Y-161393095D01*
X140422381Y-161155000D01*
X140470000Y-161012142D01*
X140565238Y-160916904D01*
X140660476Y-160869285D01*
X140850952Y-160821666D01*
X140993810Y-160821666D01*
X141184286Y-160869285D01*
X141279524Y-160916904D01*
X141374762Y-161012142D01*
X141422381Y-161155000D01*
X141422381Y-161393095D01*
X140422381Y-159916904D02*
X140422381Y-160393095D01*
X140898571Y-160440714D01*
X140850952Y-160393095D01*
X140803333Y-160297857D01*
X140803333Y-160059761D01*
X140850952Y-159964523D01*
X140898571Y-159916904D01*
X140993810Y-159869285D01*
X141231905Y-159869285D01*
X141327143Y-159916904D01*
X141374762Y-159964523D01*
X141422381Y-160059761D01*
X141422381Y-160297857D01*
X141374762Y-160393095D01*
X141327143Y-160440714D01*
X138882381Y-161393095D02*
X137882381Y-161393095D01*
X137882381Y-161155000D01*
X137930000Y-161012142D01*
X138025238Y-160916904D01*
X138120476Y-160869285D01*
X138310952Y-160821666D01*
X138453810Y-160821666D01*
X138644286Y-160869285D01*
X138739524Y-160916904D01*
X138834762Y-161012142D01*
X138882381Y-161155000D01*
X138882381Y-161393095D01*
X138215714Y-159964523D02*
X138882381Y-159964523D01*
X137834762Y-160202619D02*
X138549048Y-160440714D01*
X138549048Y-159821666D01*
X136342381Y-161393095D02*
X135342381Y-161393095D01*
X135342381Y-161155000D01*
X135390000Y-161012142D01*
X135485238Y-160916904D01*
X135580476Y-160869285D01*
X135770952Y-160821666D01*
X135913810Y-160821666D01*
X136104286Y-160869285D01*
X136199524Y-160916904D01*
X136294762Y-161012142D01*
X136342381Y-161155000D01*
X136342381Y-161393095D01*
X135342381Y-160488333D02*
X135342381Y-159869285D01*
X135723333Y-160202619D01*
X135723333Y-160059761D01*
X135770952Y-159964523D01*
X135818571Y-159916904D01*
X135913810Y-159869285D01*
X136151905Y-159869285D01*
X136247143Y-159916904D01*
X136294762Y-159964523D01*
X136342381Y-160059761D01*
X136342381Y-160345476D01*
X136294762Y-160440714D01*
X136247143Y-160488333D01*
X133802381Y-161393095D02*
X132802381Y-161393095D01*
X132802381Y-161155000D01*
X132850000Y-161012142D01*
X132945238Y-160916904D01*
X133040476Y-160869285D01*
X133230952Y-160821666D01*
X133373810Y-160821666D01*
X133564286Y-160869285D01*
X133659524Y-160916904D01*
X133754762Y-161012142D01*
X133802381Y-161155000D01*
X133802381Y-161393095D01*
X132897619Y-160440714D02*
X132850000Y-160393095D01*
X132802381Y-160297857D01*
X132802381Y-160059761D01*
X132850000Y-159964523D01*
X132897619Y-159916904D01*
X132992857Y-159869285D01*
X133088095Y-159869285D01*
X133230952Y-159916904D01*
X133802381Y-160488333D01*
X133802381Y-159869285D01*
X131262381Y-161393095D02*
X130262381Y-161393095D01*
X130262381Y-161155000D01*
X130310000Y-161012142D01*
X130405238Y-160916904D01*
X130500476Y-160869285D01*
X130690952Y-160821666D01*
X130833810Y-160821666D01*
X131024286Y-160869285D01*
X131119524Y-160916904D01*
X131214762Y-161012142D01*
X131262381Y-161155000D01*
X131262381Y-161393095D01*
X131262381Y-159869285D02*
X131262381Y-160440714D01*
X131262381Y-160155000D02*
X130262381Y-160155000D01*
X130405238Y-160250238D01*
X130500476Y-160345476D01*
X130548095Y-160440714D01*
X128722381Y-161393095D02*
X127722381Y-161393095D01*
X127722381Y-161155000D01*
X127770000Y-161012142D01*
X127865238Y-160916904D01*
X127960476Y-160869285D01*
X128150952Y-160821666D01*
X128293810Y-160821666D01*
X128484286Y-160869285D01*
X128579524Y-160916904D01*
X128674762Y-161012142D01*
X128722381Y-161155000D01*
X128722381Y-161393095D01*
X127722381Y-160202619D02*
X127722381Y-160107380D01*
X127770000Y-160012142D01*
X127817619Y-159964523D01*
X127912857Y-159916904D01*
X128103333Y-159869285D01*
X128341429Y-159869285D01*
X128531905Y-159916904D01*
X128627143Y-159964523D01*
X128674762Y-160012142D01*
X128722381Y-160107380D01*
X128722381Y-160202619D01*
X128674762Y-160297857D01*
X128627143Y-160345476D01*
X128531905Y-160393095D01*
X128341429Y-160440714D01*
X128103333Y-160440714D01*
X127912857Y-160393095D01*
X127817619Y-160345476D01*
X127770000Y-160297857D01*
X127722381Y-160202619D01*
X126182381Y-158392619D02*
X125182381Y-158392619D01*
X125182381Y-157725953D02*
X125182381Y-157535476D01*
X125230000Y-157440238D01*
X125325238Y-157345000D01*
X125515714Y-157297381D01*
X125849048Y-157297381D01*
X126039524Y-157345000D01*
X126134762Y-157440238D01*
X126182381Y-157535476D01*
X126182381Y-157725953D01*
X126134762Y-157821191D01*
X126039524Y-157916429D01*
X125849048Y-157964048D01*
X125515714Y-157964048D01*
X125325238Y-157916429D01*
X125230000Y-157821191D01*
X125182381Y-157725953D01*
X126182381Y-156297381D02*
X125706190Y-156630715D01*
X126182381Y-156868810D02*
X125182381Y-156868810D01*
X125182381Y-156487857D01*
X125230000Y-156392619D01*
X125277619Y-156345000D01*
X125372857Y-156297381D01*
X125515714Y-156297381D01*
X125610952Y-156345000D01*
X125658571Y-156392619D01*
X125706190Y-156487857D01*
X125706190Y-156868810D01*
X126277619Y-155202143D02*
X126230000Y-155297381D01*
X126134762Y-155392619D01*
X125991905Y-155535476D01*
X125944286Y-155630715D01*
X125944286Y-155725953D01*
X126182381Y-155678334D02*
X126134762Y-155773572D01*
X126039524Y-155868810D01*
X125849048Y-155916429D01*
X125515714Y-155916429D01*
X125325238Y-155868810D01*
X125230000Y-155773572D01*
X125182381Y-155678334D01*
X125182381Y-155487857D01*
X125230000Y-155392619D01*
X125325238Y-155297381D01*
X125515714Y-155249762D01*
X125849048Y-155249762D01*
X126039524Y-155297381D01*
X126134762Y-155392619D01*
X126182381Y-155487857D01*
X126182381Y-155678334D01*
X123642381Y-157670476D02*
X123166190Y-158003810D01*
X123642381Y-158241905D02*
X122642381Y-158241905D01*
X122642381Y-157860952D01*
X122690000Y-157765714D01*
X122737619Y-157718095D01*
X122832857Y-157670476D01*
X122975714Y-157670476D01*
X123070952Y-157718095D01*
X123118571Y-157765714D01*
X123166190Y-157860952D01*
X123166190Y-158241905D01*
X123642381Y-157241905D02*
X122642381Y-157241905D01*
X122642381Y-157003810D01*
X122690000Y-156860952D01*
X122785238Y-156765714D01*
X122880476Y-156718095D01*
X123070952Y-156670476D01*
X123213810Y-156670476D01*
X123404286Y-156718095D01*
X123499524Y-156765714D01*
X123594762Y-156860952D01*
X123642381Y-157003810D01*
X123642381Y-157241905D01*
X120102381Y-158662571D02*
X121102381Y-158424476D01*
X120388095Y-158233999D01*
X121102381Y-158043523D01*
X120102381Y-157805428D01*
X121102381Y-156853047D02*
X120626190Y-157186381D01*
X121102381Y-157424476D02*
X120102381Y-157424476D01*
X120102381Y-157043523D01*
X120150000Y-156948285D01*
X120197619Y-156900666D01*
X120292857Y-156853047D01*
X120435714Y-156853047D01*
X120530952Y-156900666D01*
X120578571Y-156948285D01*
X120626190Y-157043523D01*
X120626190Y-157424476D01*
X118562381Y-158837143D02*
X117562381Y-158837143D01*
X118276667Y-158503809D01*
X117562381Y-158170476D01*
X118562381Y-158170476D01*
X118562381Y-157122857D02*
X118086190Y-157456191D01*
X118562381Y-157694286D02*
X117562381Y-157694286D01*
X117562381Y-157313333D01*
X117610000Y-157218095D01*
X117657619Y-157170476D01*
X117752857Y-157122857D01*
X117895714Y-157122857D01*
X117990952Y-157170476D01*
X118038571Y-157218095D01*
X118086190Y-157313333D01*
X118086190Y-157694286D01*
X118657619Y-156027619D02*
X118610000Y-156122857D01*
X118514762Y-156218095D01*
X118371905Y-156360952D01*
X118324286Y-156456191D01*
X118324286Y-156551429D01*
X118562381Y-156503810D02*
X118514762Y-156599048D01*
X118419524Y-156694286D01*
X118229048Y-156741905D01*
X117895714Y-156741905D01*
X117705238Y-156694286D01*
X117610000Y-156599048D01*
X117562381Y-156503810D01*
X117562381Y-156313333D01*
X117610000Y-156218095D01*
X117705238Y-156122857D01*
X117895714Y-156075238D01*
X118229048Y-156075238D01*
X118419524Y-156122857D01*
X118514762Y-156218095D01*
X118562381Y-156313333D01*
X118562381Y-156503810D01*
X116022381Y-158384762D02*
X115022381Y-158384762D01*
X116022381Y-157908572D02*
X115022381Y-157908572D01*
X116022381Y-157337143D01*
X115022381Y-157337143D01*
X115022381Y-157003810D02*
X115022381Y-156432381D01*
X116022381Y-156718096D02*
X115022381Y-156718096D01*
X113387143Y-158075238D02*
X113434762Y-158122857D01*
X113482381Y-158265714D01*
X113482381Y-158360952D01*
X113434762Y-158503810D01*
X113339524Y-158599048D01*
X113244286Y-158646667D01*
X113053810Y-158694286D01*
X112910952Y-158694286D01*
X112720476Y-158646667D01*
X112625238Y-158599048D01*
X112530000Y-158503810D01*
X112482381Y-158360952D01*
X112482381Y-158265714D01*
X112530000Y-158122857D01*
X112577619Y-158075238D01*
X113482381Y-157170476D02*
X113482381Y-157646667D01*
X112482381Y-157646667D01*
X113482381Y-156837143D02*
X112482381Y-156837143D01*
X113482381Y-156265714D02*
X112910952Y-156694286D01*
X112482381Y-156265714D02*
X113053810Y-156837143D01*
X110942381Y-158027619D02*
X110466190Y-158360953D01*
X110942381Y-158599048D02*
X109942381Y-158599048D01*
X109942381Y-158218095D01*
X109990000Y-158122857D01*
X110037619Y-158075238D01*
X110132857Y-158027619D01*
X110275714Y-158027619D01*
X110370952Y-158075238D01*
X110418571Y-158122857D01*
X110466190Y-158218095D01*
X110466190Y-158599048D01*
X110894762Y-157646667D02*
X110942381Y-157503810D01*
X110942381Y-157265714D01*
X110894762Y-157170476D01*
X110847143Y-157122857D01*
X110751905Y-157075238D01*
X110656667Y-157075238D01*
X110561429Y-157122857D01*
X110513810Y-157170476D01*
X110466190Y-157265714D01*
X110418571Y-157456191D01*
X110370952Y-157551429D01*
X110323333Y-157599048D01*
X110228095Y-157646667D01*
X110132857Y-157646667D01*
X110037619Y-157599048D01*
X109990000Y-157551429D01*
X109942381Y-157456191D01*
X109942381Y-157218095D01*
X109990000Y-157075238D01*
X109942381Y-156789524D02*
X109942381Y-156218095D01*
X110942381Y-156503810D02*
X109942381Y-156503810D01*
X108402381Y-158289524D02*
X107402381Y-158289524D01*
X108116667Y-157956190D01*
X107402381Y-157622857D01*
X108402381Y-157622857D01*
X108402381Y-156622857D02*
X108402381Y-157194286D01*
X108402381Y-156908572D02*
X107402381Y-156908572D01*
X107545238Y-157003810D01*
X107640476Y-157099048D01*
X107688095Y-157194286D01*
X102370000Y-160781904D02*
X102322381Y-160877142D01*
X102322381Y-161019999D01*
X102370000Y-161162857D01*
X102465238Y-161258095D01*
X102560476Y-161305714D01*
X102750952Y-161353333D01*
X102893810Y-161353333D01*
X103084286Y-161305714D01*
X103179524Y-161258095D01*
X103274762Y-161162857D01*
X103322381Y-161019999D01*
X103322381Y-160924761D01*
X103274762Y-160781904D01*
X103227143Y-160734285D01*
X102893810Y-160734285D01*
X102893810Y-160924761D01*
X103322381Y-160305714D02*
X102322381Y-160305714D01*
X103322381Y-159734285D01*
X102322381Y-159734285D01*
X103322381Y-159258095D02*
X102322381Y-159258095D01*
X102322381Y-159020000D01*
X102370000Y-158877142D01*
X102465238Y-158781904D01*
X102560476Y-158734285D01*
X102750952Y-158686666D01*
X102893810Y-158686666D01*
X103084286Y-158734285D01*
X103179524Y-158781904D01*
X103274762Y-158877142D01*
X103322381Y-159020000D01*
X103322381Y-159258095D01*
X105481429Y-161305714D02*
X105481429Y-160543809D01*
X105862381Y-160924761D02*
X105100476Y-160924761D01*
X104862381Y-159591428D02*
X104862381Y-160067619D01*
X105338571Y-160115238D01*
X105290952Y-160067619D01*
X105243333Y-159972381D01*
X105243333Y-159734285D01*
X105290952Y-159639047D01*
X105338571Y-159591428D01*
X105433810Y-159543809D01*
X105671905Y-159543809D01*
X105767143Y-159591428D01*
X105814762Y-159639047D01*
X105862381Y-159734285D01*
X105862381Y-159972381D01*
X105814762Y-160067619D01*
X105767143Y-160115238D01*
X104862381Y-159258095D02*
X105862381Y-158924762D01*
X104862381Y-158591428D01*
X100496667Y-161369286D02*
X100496667Y-160893095D01*
X100782381Y-161464524D02*
X99782381Y-161131191D01*
X100782381Y-160797857D01*
X99782381Y-160274048D02*
X99782381Y-160178809D01*
X99830000Y-160083571D01*
X99877619Y-160035952D01*
X99972857Y-159988333D01*
X100163333Y-159940714D01*
X100401429Y-159940714D01*
X100591905Y-159988333D01*
X100687143Y-160035952D01*
X100734762Y-160083571D01*
X100782381Y-160178809D01*
X100782381Y-160274048D01*
X100734762Y-160369286D01*
X100687143Y-160416905D01*
X100591905Y-160464524D01*
X100401429Y-160512143D01*
X100163333Y-160512143D01*
X99972857Y-160464524D01*
X99877619Y-160416905D01*
X99830000Y-160369286D01*
X99782381Y-160274048D01*
X97956667Y-161369286D02*
X97956667Y-160893095D01*
X98242381Y-161464524D02*
X97242381Y-161131191D01*
X98242381Y-160797857D01*
X98242381Y-159940714D02*
X98242381Y-160512143D01*
X98242381Y-160226429D02*
X97242381Y-160226429D01*
X97385238Y-160321667D01*
X97480476Y-160416905D01*
X97528095Y-160512143D01*
X95416667Y-161369286D02*
X95416667Y-160893095D01*
X95702381Y-161464524D02*
X94702381Y-161131191D01*
X95702381Y-160797857D01*
X94797619Y-160512143D02*
X94750000Y-160464524D01*
X94702381Y-160369286D01*
X94702381Y-160131190D01*
X94750000Y-160035952D01*
X94797619Y-159988333D01*
X94892857Y-159940714D01*
X94988095Y-159940714D01*
X95130952Y-159988333D01*
X95702381Y-160559762D01*
X95702381Y-159940714D01*
X92876667Y-161369286D02*
X92876667Y-160893095D01*
X93162381Y-161464524D02*
X92162381Y-161131191D01*
X93162381Y-160797857D01*
X92162381Y-160559762D02*
X92162381Y-159940714D01*
X92543333Y-160274048D01*
X92543333Y-160131190D01*
X92590952Y-160035952D01*
X92638571Y-159988333D01*
X92733810Y-159940714D01*
X92971905Y-159940714D01*
X93067143Y-159988333D01*
X93114762Y-160035952D01*
X93162381Y-160131190D01*
X93162381Y-160416905D01*
X93114762Y-160512143D01*
X93067143Y-160559762D01*
X90590667Y-161242286D02*
X90590667Y-160766095D01*
X90876381Y-161337524D02*
X89876381Y-161004191D01*
X90876381Y-160670857D01*
X90209714Y-159908952D02*
X90876381Y-159908952D01*
X89828762Y-160147048D02*
X90543048Y-160385143D01*
X90543048Y-159766095D01*
X87796667Y-161242286D02*
X87796667Y-160766095D01*
X88082381Y-161337524D02*
X87082381Y-161004191D01*
X88082381Y-160670857D01*
X87082381Y-159861333D02*
X87082381Y-160337524D01*
X87558571Y-160385143D01*
X87510952Y-160337524D01*
X87463333Y-160242286D01*
X87463333Y-160004190D01*
X87510952Y-159908952D01*
X87558571Y-159861333D01*
X87653810Y-159813714D01*
X87891905Y-159813714D01*
X87987143Y-159861333D01*
X88034762Y-159908952D01*
X88082381Y-160004190D01*
X88082381Y-160242286D01*
X88034762Y-160337524D01*
X87987143Y-160385143D01*
X85256667Y-161242286D02*
X85256667Y-160766095D01*
X85542381Y-161337524D02*
X84542381Y-161004191D01*
X85542381Y-160670857D01*
X84542381Y-159908952D02*
X84542381Y-160099429D01*
X84590000Y-160194667D01*
X84637619Y-160242286D01*
X84780476Y-160337524D01*
X84970952Y-160385143D01*
X85351905Y-160385143D01*
X85447143Y-160337524D01*
X85494762Y-160289905D01*
X85542381Y-160194667D01*
X85542381Y-160004190D01*
X85494762Y-159908952D01*
X85447143Y-159861333D01*
X85351905Y-159813714D01*
X85113810Y-159813714D01*
X85018571Y-159861333D01*
X84970952Y-159908952D01*
X84923333Y-160004190D01*
X84923333Y-160194667D01*
X84970952Y-160289905D01*
X85018571Y-160337524D01*
X85113810Y-160385143D01*
X82716667Y-161242286D02*
X82716667Y-160766095D01*
X83002381Y-161337524D02*
X82002381Y-161004191D01*
X83002381Y-160670857D01*
X82002381Y-160432762D02*
X82002381Y-159766095D01*
X83002381Y-160194667D01*
X80176667Y-161242286D02*
X80176667Y-160766095D01*
X80462381Y-161337524D02*
X79462381Y-161004191D01*
X80462381Y-160670857D01*
X79890952Y-160194667D02*
X79843333Y-160289905D01*
X79795714Y-160337524D01*
X79700476Y-160385143D01*
X79652857Y-160385143D01*
X79557619Y-160337524D01*
X79510000Y-160289905D01*
X79462381Y-160194667D01*
X79462381Y-160004190D01*
X79510000Y-159908952D01*
X79557619Y-159861333D01*
X79652857Y-159813714D01*
X79700476Y-159813714D01*
X79795714Y-159861333D01*
X79843333Y-159908952D01*
X79890952Y-160004190D01*
X79890952Y-160194667D01*
X79938571Y-160289905D01*
X79986190Y-160337524D01*
X80081429Y-160385143D01*
X80271905Y-160385143D01*
X80367143Y-160337524D01*
X80414762Y-160289905D01*
X80462381Y-160194667D01*
X80462381Y-160004190D01*
X80414762Y-159908952D01*
X80367143Y-159861333D01*
X80271905Y-159813714D01*
X80081429Y-159813714D01*
X79986190Y-159861333D01*
X79938571Y-159908952D01*
X79890952Y-160004190D01*
X77636667Y-161242286D02*
X77636667Y-160766095D01*
X77922381Y-161337524D02*
X76922381Y-161004191D01*
X77922381Y-160670857D01*
X77922381Y-160289905D02*
X77922381Y-160099429D01*
X77874762Y-160004190D01*
X77827143Y-159956571D01*
X77684286Y-159861333D01*
X77493810Y-159813714D01*
X77112857Y-159813714D01*
X77017619Y-159861333D01*
X76970000Y-159908952D01*
X76922381Y-160004190D01*
X76922381Y-160194667D01*
X76970000Y-160289905D01*
X77017619Y-160337524D01*
X77112857Y-160385143D01*
X77350952Y-160385143D01*
X77446190Y-160337524D01*
X77493810Y-160289905D01*
X77541429Y-160194667D01*
X77541429Y-160004190D01*
X77493810Y-159908952D01*
X77446190Y-159861333D01*
X77350952Y-159813714D01*
X75096667Y-161210476D02*
X75096667Y-160734285D01*
X75382381Y-161305714D02*
X74382381Y-160972381D01*
X75382381Y-160639047D01*
X75382381Y-159781904D02*
X75382381Y-160353333D01*
X75382381Y-160067619D02*
X74382381Y-160067619D01*
X74525238Y-160162857D01*
X74620476Y-160258095D01*
X74668095Y-160353333D01*
X74382381Y-159162857D02*
X74382381Y-159067618D01*
X74430000Y-158972380D01*
X74477619Y-158924761D01*
X74572857Y-158877142D01*
X74763333Y-158829523D01*
X75001429Y-158829523D01*
X75191905Y-158877142D01*
X75287143Y-158924761D01*
X75334762Y-158972380D01*
X75382381Y-159067618D01*
X75382381Y-159162857D01*
X75334762Y-159258095D01*
X75287143Y-159305714D01*
X75191905Y-159353333D01*
X75001429Y-159400952D01*
X74763333Y-159400952D01*
X74572857Y-159353333D01*
X74477619Y-159305714D01*
X74430000Y-159258095D01*
X74382381Y-159162857D01*
X72556667Y-161210476D02*
X72556667Y-160734285D01*
X72842381Y-161305714D02*
X71842381Y-160972381D01*
X72842381Y-160639047D01*
X72842381Y-159781904D02*
X72842381Y-160353333D01*
X72842381Y-160067619D02*
X71842381Y-160067619D01*
X71985238Y-160162857D01*
X72080476Y-160258095D01*
X72128095Y-160353333D01*
X72842381Y-158829523D02*
X72842381Y-159400952D01*
X72842381Y-159115238D02*
X71842381Y-159115238D01*
X71985238Y-159210476D01*
X72080476Y-159305714D01*
X72128095Y-159400952D01*
X70016667Y-161210476D02*
X70016667Y-160734285D01*
X70302381Y-161305714D02*
X69302381Y-160972381D01*
X70302381Y-160639047D01*
X70302381Y-159781904D02*
X70302381Y-160353333D01*
X70302381Y-160067619D02*
X69302381Y-160067619D01*
X69445238Y-160162857D01*
X69540476Y-160258095D01*
X69588095Y-160353333D01*
X69397619Y-159400952D02*
X69350000Y-159353333D01*
X69302381Y-159258095D01*
X69302381Y-159019999D01*
X69350000Y-158924761D01*
X69397619Y-158877142D01*
X69492857Y-158829523D01*
X69588095Y-158829523D01*
X69730952Y-158877142D01*
X70302381Y-159448571D01*
X70302381Y-158829523D01*
X67476667Y-161210476D02*
X67476667Y-160734285D01*
X67762381Y-161305714D02*
X66762381Y-160972381D01*
X67762381Y-160639047D01*
X67762381Y-159781904D02*
X67762381Y-160353333D01*
X67762381Y-160067619D02*
X66762381Y-160067619D01*
X66905238Y-160162857D01*
X67000476Y-160258095D01*
X67048095Y-160353333D01*
X66762381Y-159448571D02*
X66762381Y-158829523D01*
X67143333Y-159162857D01*
X67143333Y-159019999D01*
X67190952Y-158924761D01*
X67238571Y-158877142D01*
X67333810Y-158829523D01*
X67571905Y-158829523D01*
X67667143Y-158877142D01*
X67714762Y-158924761D01*
X67762381Y-159019999D01*
X67762381Y-159305714D01*
X67714762Y-159400952D01*
X67667143Y-159448571D01*
X64936667Y-161210476D02*
X64936667Y-160734285D01*
X65222381Y-161305714D02*
X64222381Y-160972381D01*
X65222381Y-160639047D01*
X65222381Y-159781904D02*
X65222381Y-160353333D01*
X65222381Y-160067619D02*
X64222381Y-160067619D01*
X64365238Y-160162857D01*
X64460476Y-160258095D01*
X64508095Y-160353333D01*
X64555714Y-158924761D02*
X65222381Y-158924761D01*
X64174762Y-159162857D02*
X64889048Y-159400952D01*
X64889048Y-158781904D01*
X82716667Y-118554524D02*
X82716667Y-118078333D01*
X83002381Y-118649762D02*
X82002381Y-118316429D01*
X83002381Y-117983095D01*
X83002381Y-117125952D02*
X83002381Y-117697381D01*
X83002381Y-117411667D02*
X82002381Y-117411667D01*
X82145238Y-117506905D01*
X82240476Y-117602143D01*
X82288095Y-117697381D01*
X82002381Y-116221190D02*
X82002381Y-116697381D01*
X82478571Y-116745000D01*
X82430952Y-116697381D01*
X82383333Y-116602143D01*
X82383333Y-116364047D01*
X82430952Y-116268809D01*
X82478571Y-116221190D01*
X82573810Y-116173571D01*
X82811905Y-116173571D01*
X82907143Y-116221190D01*
X82954762Y-116268809D01*
X83002381Y-116364047D01*
X83002381Y-116602143D01*
X82954762Y-116697381D01*
X82907143Y-116745000D01*
X62396667Y-161210476D02*
X62396667Y-160734285D01*
X62682381Y-161305714D02*
X61682381Y-160972381D01*
X62682381Y-160639047D01*
X62682381Y-159781904D02*
X62682381Y-160353333D01*
X62682381Y-160067619D02*
X61682381Y-160067619D01*
X61825238Y-160162857D01*
X61920476Y-160258095D01*
X61968095Y-160353333D01*
X61682381Y-158877142D02*
X61682381Y-159353333D01*
X62158571Y-159400952D01*
X62110952Y-159353333D01*
X62063333Y-159258095D01*
X62063333Y-159019999D01*
X62110952Y-158924761D01*
X62158571Y-158877142D01*
X62253810Y-158829523D01*
X62491905Y-158829523D01*
X62587143Y-158877142D01*
X62634762Y-158924761D01*
X62682381Y-159019999D01*
X62682381Y-159258095D01*
X62634762Y-159353333D01*
X62587143Y-159400952D01*
D13*
X159005000Y-143445000D02*
X158730000Y-143445000D01*
X159005000Y-151195000D02*
X158640000Y-151195000D01*
X143255000Y-151195000D02*
X143620000Y-151195000D01*
X143255000Y-143445000D02*
X143620000Y-143445000D01*
X159005000Y-143445000D02*
X159005000Y-151195000D01*
X143255000Y-143445000D02*
X143255000Y-151195000D01*
X158730000Y-143445000D02*
X158730000Y-141620000D01*
X98045000Y-143445000D02*
X97770000Y-143445000D01*
X98045000Y-151195000D02*
X97680000Y-151195000D01*
X82295000Y-151195000D02*
X82660000Y-151195000D01*
X82295000Y-143445000D02*
X82660000Y-143445000D01*
X98045000Y-143445000D02*
X98045000Y-151195000D01*
X82295000Y-143445000D02*
X82295000Y-151195000D01*
X97770000Y-143445000D02*
X97770000Y-141620000D01*
X138685000Y-143445000D02*
X138410000Y-143445000D01*
X138685000Y-151195000D02*
X138320000Y-151195000D01*
X122935000Y-151195000D02*
X123300000Y-151195000D01*
X122935000Y-143445000D02*
X123300000Y-143445000D01*
X138685000Y-143445000D02*
X138685000Y-151195000D01*
X122935000Y-143445000D02*
X122935000Y-151195000D01*
X138410000Y-143445000D02*
X138410000Y-141620000D01*
X118365000Y-143445000D02*
X118090000Y-143445000D01*
X118365000Y-151195000D02*
X118000000Y-151195000D01*
X102615000Y-151195000D02*
X102980000Y-151195000D01*
X102615000Y-143445000D02*
X102980000Y-143445000D01*
X118365000Y-143445000D02*
X118365000Y-151195000D01*
X102615000Y-143445000D02*
X102615000Y-151195000D01*
X118090000Y-143445000D02*
X118090000Y-141620000D01*
D14*
X62230000Y-164330000D02*
X60900000Y-164330000D01*
X60900000Y-164330000D02*
X60900000Y-163000000D01*
D13*
X77725000Y-143445000D02*
X77450000Y-143445000D01*
X77725000Y-151195000D02*
X77360000Y-151195000D01*
X61975000Y-151195000D02*
X62340000Y-151195000D01*
X61975000Y-143445000D02*
X62340000Y-143445000D01*
X77725000Y-143445000D02*
X77725000Y-151195000D01*
X61975000Y-143445000D02*
X61975000Y-151195000D01*
X77450000Y-143445000D02*
X77450000Y-141620000D01*
D14*
X68520000Y-134045000D02*
X71180000Y-134045000D01*
X68520000Y-128905000D02*
X68520000Y-134045000D01*
X71180000Y-128905000D02*
X71180000Y-134045000D01*
X68520000Y-128905000D02*
X71180000Y-128905000D01*
X68520000Y-127635000D02*
X68520000Y-126305000D01*
X68520000Y-126305000D02*
X69850000Y-126305000D01*
X149327997Y-137788609D02*
X151987997Y-137788609D01*
X149327997Y-130108609D02*
X149327997Y-137788609D01*
X151987997Y-130108609D02*
X151987997Y-137788609D01*
X149327997Y-130108609D02*
X151987997Y-130108609D01*
X149327997Y-128838609D02*
X149327997Y-127508609D01*
X149327997Y-127508609D02*
X150657997Y-127508609D01*
X151867997Y-137788609D02*
X157067997Y-137788609D01*
X151867997Y-119948609D02*
X151867997Y-137788609D01*
X157067997Y-117348609D02*
X157067997Y-137788609D01*
X151867997Y-119948609D02*
X154467997Y-119948609D01*
X154467997Y-119948609D02*
X154467997Y-117348609D01*
X154467997Y-117348609D02*
X157067997Y-117348609D01*
X151867997Y-118678609D02*
X151867997Y-117348609D01*
X151867997Y-117348609D02*
X153197997Y-117348609D01*
X127060000Y-161985000D02*
X127060000Y-159325000D01*
X109220000Y-161985000D02*
X127060000Y-161985000D01*
X109220000Y-159325000D02*
X127060000Y-159325000D01*
X109220000Y-161985000D02*
X109220000Y-159325000D01*
X107950000Y-161985000D02*
X106620000Y-161985000D01*
X106620000Y-161985000D02*
X106620000Y-160655000D01*
X74660000Y-119150000D02*
X146320000Y-119150000D01*
X146320000Y-119150000D02*
X146320000Y-128500000D01*
X146320000Y-128500000D02*
X74660000Y-128500000D01*
X74660000Y-128500000D02*
X74660000Y-119150000D01*
X74410000Y-128750000D02*
X76950000Y-128750000D01*
X74410000Y-128750000D02*
X74410000Y-126210000D01*
D11*
X158623095Y-139152381D02*
X158623095Y-139961905D01*
X158670714Y-140057143D01*
X158718333Y-140104762D01*
X158813571Y-140152381D01*
X159004048Y-140152381D01*
X159099286Y-140104762D01*
X159146905Y-140057143D01*
X159194524Y-139961905D01*
X159194524Y-139152381D01*
X160146905Y-139152381D02*
X159670714Y-139152381D01*
X159623095Y-139628571D01*
X159670714Y-139580952D01*
X159765952Y-139533333D01*
X160004048Y-139533333D01*
X160099286Y-139580952D01*
X160146905Y-139628571D01*
X160194524Y-139723810D01*
X160194524Y-139961905D01*
X160146905Y-140057143D01*
X160099286Y-140104762D01*
X160004048Y-140152381D01*
X159765952Y-140152381D01*
X159670714Y-140104762D01*
X159623095Y-140057143D01*
X95758095Y-139152381D02*
X95758095Y-139961905D01*
X95805714Y-140057143D01*
X95853333Y-140104762D01*
X95948571Y-140152381D01*
X96139048Y-140152381D01*
X96234286Y-140104762D01*
X96281905Y-140057143D01*
X96329524Y-139961905D01*
X96329524Y-139152381D01*
X96758095Y-139247619D02*
X96805714Y-139200000D01*
X96900952Y-139152381D01*
X97139048Y-139152381D01*
X97234286Y-139200000D01*
X97281905Y-139247619D01*
X97329524Y-139342857D01*
X97329524Y-139438095D01*
X97281905Y-139580952D01*
X96710476Y-140152381D01*
X97329524Y-140152381D01*
X136398095Y-139152381D02*
X136398095Y-139961905D01*
X136445714Y-140057143D01*
X136493333Y-140104762D01*
X136588571Y-140152381D01*
X136779048Y-140152381D01*
X136874286Y-140104762D01*
X136921905Y-140057143D01*
X136969524Y-139961905D01*
X136969524Y-139152381D01*
X137350476Y-139152381D02*
X137969524Y-139152381D01*
X137636190Y-139533333D01*
X137779048Y-139533333D01*
X137874286Y-139580952D01*
X137921905Y-139628571D01*
X137969524Y-139723810D01*
X137969524Y-139961905D01*
X137921905Y-140057143D01*
X137874286Y-140104762D01*
X137779048Y-140152381D01*
X137493333Y-140152381D01*
X137398095Y-140104762D01*
X137350476Y-140057143D01*
X116078095Y-139532381D02*
X116078095Y-140341905D01*
X116125714Y-140437143D01*
X116173333Y-140484762D01*
X116268571Y-140532381D01*
X116459048Y-140532381D01*
X116554286Y-140484762D01*
X116601905Y-140437143D01*
X116649524Y-140341905D01*
X116649524Y-139532381D01*
X117554286Y-139865714D02*
X117554286Y-140532381D01*
X117316190Y-139484762D02*
X117078095Y-140199048D01*
X117697143Y-140199048D01*
X61491905Y-156662381D02*
X61491905Y-155662381D01*
X61872858Y-155662381D01*
X61968096Y-155710000D01*
X62015715Y-155757619D01*
X62063334Y-155852857D01*
X62063334Y-155995714D01*
X62015715Y-156090952D01*
X61968096Y-156138571D01*
X61872858Y-156186190D01*
X61491905Y-156186190D01*
X63015715Y-156662381D02*
X62444286Y-156662381D01*
X62730000Y-156662381D02*
X62730000Y-155662381D01*
X62634762Y-155805238D01*
X62539524Y-155900476D01*
X62444286Y-155948095D01*
X76073095Y-139152381D02*
X76073095Y-139961905D01*
X76120714Y-140057143D01*
X76168333Y-140104762D01*
X76263571Y-140152381D01*
X76454048Y-140152381D01*
X76549286Y-140104762D01*
X76596905Y-140057143D01*
X76644524Y-139961905D01*
X76644524Y-139152381D01*
X77644524Y-140152381D02*
X77073095Y-140152381D01*
X77358809Y-140152381D02*
X77358809Y-139152381D01*
X77263571Y-139295238D01*
X77168333Y-139390476D01*
X77073095Y-139438095D01*
X69016667Y-124547381D02*
X69016667Y-125261667D01*
X68969047Y-125404524D01*
X68873809Y-125499762D01*
X68730952Y-125547381D01*
X68635714Y-125547381D01*
X69492857Y-125547381D02*
X69492857Y-124547381D01*
X69873810Y-124547381D01*
X69969048Y-124595000D01*
X70016667Y-124642619D01*
X70064286Y-124737857D01*
X70064286Y-124880714D01*
X70016667Y-124975952D01*
X69969048Y-125023571D01*
X69873810Y-125071190D01*
X69492857Y-125071190D01*
X71016667Y-125547381D02*
X70445238Y-125547381D01*
X70730952Y-125547381D02*
X70730952Y-124547381D01*
X70635714Y-124690238D01*
X70540476Y-124785476D01*
X70445238Y-124833095D01*
X154134664Y-115800990D02*
X154134664Y-116515276D01*
X154087044Y-116658133D01*
X153991806Y-116753371D01*
X153848949Y-116800990D01*
X153753711Y-116800990D01*
X154563235Y-115896228D02*
X154610854Y-115848609D01*
X154706092Y-115800990D01*
X154944188Y-115800990D01*
X155039426Y-115848609D01*
X155087045Y-115896228D01*
X155134664Y-115991466D01*
X155134664Y-116086704D01*
X155087045Y-116229561D01*
X154515616Y-116800990D01*
X155134664Y-116800990D01*
X104862381Y-155908333D02*
X105576667Y-155908333D01*
X105719524Y-155955953D01*
X105814762Y-156051191D01*
X105862381Y-156194048D01*
X105862381Y-156289286D01*
X104862381Y-155003571D02*
X104862381Y-155194048D01*
X104910000Y-155289286D01*
X104957619Y-155336905D01*
X105100476Y-155432143D01*
X105290952Y-155479762D01*
X105671905Y-155479762D01*
X105767143Y-155432143D01*
X105814762Y-155384524D01*
X105862381Y-155289286D01*
X105862381Y-155098809D01*
X105814762Y-155003571D01*
X105767143Y-154955952D01*
X105671905Y-154908333D01*
X105433810Y-154908333D01*
X105338571Y-154955952D01*
X105290952Y-155003571D01*
X105243333Y-155098809D01*
X105243333Y-155289286D01*
X105290952Y-155384524D01*
X105338571Y-155432143D01*
X105433810Y-155479762D01*
D13*
X73072667Y-123277381D02*
X73072667Y-123991667D01*
X73025047Y-124134524D01*
X72929809Y-124229762D01*
X72786952Y-124277381D01*
X72691714Y-124277381D01*
X74072667Y-124277381D02*
X73501238Y-124277381D01*
X73786952Y-124277381D02*
X73786952Y-123277381D01*
X73691714Y-123420238D01*
X73596476Y-123515476D01*
X73501238Y-123563095D01*
M02*
