G04 #@! TF.FileFunction,Copper,L1,Top,Signal*
%FSLAX46Y46*%
G04 Gerber Fmt 4.6, Leading zero omitted, Abs format (unit mm)*
G04 Created by KiCad (PCBNEW 4.0.7) date Wed Feb  7 00:44:32 2018*
%MOMM*%
%LPD*%
G01*
G04 APERTURE LIST*
%ADD10C,0.100000*%
%ADD11R,0.600000X2.000000*%
%ADD12R,2.000000X2.000000*%
%ADD13O,2.000000X2.000000*%
%ADD14R,1.700000X1.700000*%
%ADD15O,1.700000X1.700000*%
%ADD16R,1.727200X1.727200*%
%ADD17O,1.727200X1.727200*%
%ADD18C,0.685800*%
%ADD19C,0.381000*%
G04 APERTURE END LIST*
D10*
D11*
X158115000Y-142620000D03*
X156845000Y-142620000D03*
X155575000Y-142620000D03*
X154305000Y-142620000D03*
X153035000Y-142620000D03*
X151765000Y-142620000D03*
X150495000Y-142620000D03*
X149225000Y-142620000D03*
X147955000Y-142620000D03*
X146685000Y-142620000D03*
X145415000Y-142620000D03*
X144145000Y-142620000D03*
X144145000Y-152020000D03*
X145415000Y-152020000D03*
X146685000Y-152020000D03*
X147955000Y-152020000D03*
X149225000Y-152020000D03*
X150495000Y-152020000D03*
X151765000Y-152020000D03*
X153035000Y-152020000D03*
X154305000Y-152020000D03*
X155575000Y-152020000D03*
X156845000Y-152020000D03*
X158115000Y-152020000D03*
X97155000Y-142620000D03*
X95885000Y-142620000D03*
X94615000Y-142620000D03*
X93345000Y-142620000D03*
X92075000Y-142620000D03*
X90805000Y-142620000D03*
X89535000Y-142620000D03*
X88265000Y-142620000D03*
X86995000Y-142620000D03*
X85725000Y-142620000D03*
X84455000Y-142620000D03*
X83185000Y-142620000D03*
X83185000Y-152020000D03*
X84455000Y-152020000D03*
X85725000Y-152020000D03*
X86995000Y-152020000D03*
X88265000Y-152020000D03*
X89535000Y-152020000D03*
X90805000Y-152020000D03*
X92075000Y-152020000D03*
X93345000Y-152020000D03*
X94615000Y-152020000D03*
X95885000Y-152020000D03*
X97155000Y-152020000D03*
X137795000Y-142620000D03*
X136525000Y-142620000D03*
X135255000Y-142620000D03*
X133985000Y-142620000D03*
X132715000Y-142620000D03*
X131445000Y-142620000D03*
X130175000Y-142620000D03*
X128905000Y-142620000D03*
X127635000Y-142620000D03*
X126365000Y-142620000D03*
X125095000Y-142620000D03*
X123825000Y-142620000D03*
X123825000Y-152020000D03*
X125095000Y-152020000D03*
X126365000Y-152020000D03*
X127635000Y-152020000D03*
X128905000Y-152020000D03*
X130175000Y-152020000D03*
X131445000Y-152020000D03*
X132715000Y-152020000D03*
X133985000Y-152020000D03*
X135255000Y-152020000D03*
X136525000Y-152020000D03*
X137795000Y-152020000D03*
X117475000Y-142620000D03*
X116205000Y-142620000D03*
X114935000Y-142620000D03*
X113665000Y-142620000D03*
X112395000Y-142620000D03*
X111125000Y-142620000D03*
X109855000Y-142620000D03*
X108585000Y-142620000D03*
X107315000Y-142620000D03*
X106045000Y-142620000D03*
X104775000Y-142620000D03*
X103505000Y-142620000D03*
X103505000Y-152020000D03*
X104775000Y-152020000D03*
X106045000Y-152020000D03*
X107315000Y-152020000D03*
X108585000Y-152020000D03*
X109855000Y-152020000D03*
X111125000Y-152020000D03*
X112395000Y-152020000D03*
X113665000Y-152020000D03*
X114935000Y-152020000D03*
X116205000Y-152020000D03*
X117475000Y-152020000D03*
D12*
X62230000Y-163000000D03*
D13*
X64770000Y-163000000D03*
X67310000Y-163000000D03*
X69850000Y-163000000D03*
X72390000Y-163000000D03*
X74930000Y-163000000D03*
X77470000Y-163000000D03*
X80010000Y-163000000D03*
X82550000Y-163000000D03*
X85090000Y-163000000D03*
X87630000Y-163000000D03*
X90170000Y-163000000D03*
X92710000Y-163000000D03*
X95250000Y-163000000D03*
X97790000Y-163000000D03*
X100330000Y-163000000D03*
X102870000Y-163000000D03*
X105410000Y-163000000D03*
X107950000Y-163000000D03*
X110490000Y-163000000D03*
X113030000Y-163000000D03*
X115570000Y-163000000D03*
X118110000Y-163000000D03*
X120650000Y-163000000D03*
X123190000Y-163000000D03*
X125730000Y-163000000D03*
X128270000Y-163000000D03*
X130810000Y-163000000D03*
X133350000Y-163000000D03*
X135890000Y-163000000D03*
X138430000Y-163000000D03*
X140970000Y-163000000D03*
X143510000Y-163000000D03*
X146050000Y-163000000D03*
X148590000Y-163000000D03*
X151130000Y-163000000D03*
X153670000Y-163000000D03*
X156210000Y-163000000D03*
X158750000Y-163000000D03*
D11*
X76835000Y-142620000D03*
X75565000Y-142620000D03*
X74295000Y-142620000D03*
X73025000Y-142620000D03*
X71755000Y-142620000D03*
X70485000Y-142620000D03*
X69215000Y-142620000D03*
X67945000Y-142620000D03*
X66675000Y-142620000D03*
X65405000Y-142620000D03*
X64135000Y-142620000D03*
X62865000Y-142620000D03*
X62865000Y-152020000D03*
X64135000Y-152020000D03*
X65405000Y-152020000D03*
X66675000Y-152020000D03*
X67945000Y-152020000D03*
X69215000Y-152020000D03*
X70485000Y-152020000D03*
X71755000Y-152020000D03*
X73025000Y-152020000D03*
X74295000Y-152020000D03*
X75565000Y-152020000D03*
X76835000Y-152020000D03*
D14*
X69850000Y-127635000D03*
D15*
X69850000Y-130175000D03*
X69850000Y-132715000D03*
D14*
X150657997Y-128838609D03*
D15*
X150657997Y-131378609D03*
X150657997Y-133918609D03*
X150657997Y-136458609D03*
D14*
X153197997Y-118678609D03*
D15*
X155737997Y-118678609D03*
X153197997Y-121218609D03*
X155737997Y-121218609D03*
X153197997Y-123758609D03*
X155737997Y-123758609D03*
X153197997Y-126298609D03*
X155737997Y-126298609D03*
X153197997Y-128838609D03*
X155737997Y-128838609D03*
X153197997Y-131378609D03*
X155737997Y-131378609D03*
X153197997Y-133918609D03*
X155737997Y-133918609D03*
X153197997Y-136458609D03*
X155737997Y-136458609D03*
D14*
X107950000Y-160655000D03*
D15*
X110490000Y-160655000D03*
X113030000Y-160655000D03*
X115570000Y-160655000D03*
X118110000Y-160655000D03*
X120650000Y-160655000D03*
X123190000Y-160655000D03*
X125730000Y-160655000D03*
D16*
X80010000Y-125095000D03*
D17*
X80010000Y-122555000D03*
X82550000Y-125095000D03*
X82550000Y-122555000D03*
X85090000Y-125095000D03*
X85090000Y-122555000D03*
X87630000Y-125095000D03*
X87630000Y-122555000D03*
X90170000Y-125095000D03*
X90170000Y-122555000D03*
X92710000Y-125095000D03*
X92710000Y-122555000D03*
X95250000Y-125095000D03*
X95250000Y-122555000D03*
X97790000Y-125095000D03*
X97790000Y-122555000D03*
X100330000Y-125095000D03*
X100330000Y-122555000D03*
X102870000Y-125095000D03*
X102870000Y-122555000D03*
X105410000Y-125095000D03*
X105410000Y-122555000D03*
X107950000Y-125095000D03*
X107950000Y-122555000D03*
X110490000Y-125095000D03*
X110490000Y-122555000D03*
X113030000Y-125095000D03*
X113030000Y-122555000D03*
X115570000Y-125095000D03*
X115570000Y-122555000D03*
X118110000Y-125095000D03*
X118110000Y-122555000D03*
X120650000Y-125095000D03*
X120650000Y-122555000D03*
X123190000Y-125095000D03*
X123190000Y-122555000D03*
X125730000Y-125095000D03*
X125730000Y-122555000D03*
X128270000Y-125095000D03*
X128270000Y-122555000D03*
X130810000Y-125095000D03*
X130810000Y-122555000D03*
X133350000Y-125095000D03*
X133350000Y-122555000D03*
X135890000Y-125095000D03*
X135890000Y-122555000D03*
X138430000Y-125095000D03*
X138430000Y-122555000D03*
X140970000Y-125095000D03*
X140970000Y-122555000D03*
D18*
X83219081Y-148472037D03*
X138430000Y-134620000D03*
X123939647Y-147845813D03*
X103505000Y-153670000D03*
X62865000Y-153670000D03*
X83185000Y-154305000D03*
X83185000Y-144145000D03*
X103505000Y-146050000D03*
X128835302Y-154434987D03*
X112395000Y-127635000D03*
X111760000Y-128905000D03*
X109855000Y-130175000D03*
X156845000Y-140335000D03*
X115845501Y-144875499D03*
X95525501Y-144875499D03*
X156828344Y-144755436D03*
X76835000Y-140335000D03*
X137580938Y-144389281D03*
X74295000Y-144780000D03*
X100330000Y-142875000D03*
X138591926Y-136642905D03*
X141605000Y-142240000D03*
X155432853Y-144637853D03*
X156454000Y-149225000D03*
X76878093Y-150108700D03*
X97114109Y-150077423D03*
X117412678Y-150077423D03*
X135614499Y-149744501D03*
X119221745Y-140644294D03*
X120650000Y-143608412D03*
X128974517Y-139969567D03*
X127808564Y-139969567D03*
X125730000Y-139700000D03*
X111589157Y-139977597D03*
X109535728Y-139280447D03*
X108597742Y-140079001D03*
X107315000Y-139065000D03*
X106045000Y-140335000D03*
X127635000Y-154403410D03*
X126365000Y-154403410D03*
X125095000Y-154403410D03*
X109855000Y-155053174D03*
X108585000Y-155053174D03*
X107799564Y-155537738D03*
D19*
X83185000Y-148506118D02*
X83219081Y-148472037D01*
X83185000Y-152020000D02*
X83185000Y-148506118D01*
X144145000Y-147466397D02*
X144145000Y-150495000D01*
X62865000Y-142620000D02*
X62865000Y-141087554D01*
X62865000Y-141087554D02*
X63497730Y-140454824D01*
X63497730Y-140454824D02*
X64135000Y-141092094D01*
X64135000Y-141092094D02*
X64135000Y-142620000D01*
X144037474Y-140970000D02*
X144037474Y-140227474D01*
X144037474Y-140227474D02*
X138430000Y-134620000D01*
X145034000Y-140970000D02*
X144037474Y-140970000D01*
X144037474Y-140970000D02*
X144037474Y-142512474D01*
X144037474Y-142512474D02*
X144145000Y-142620000D01*
X123825000Y-142620000D02*
X123852132Y-142647132D01*
X123852132Y-142647132D02*
X123852132Y-144261272D01*
X123852132Y-144261272D02*
X124506000Y-144915140D01*
X124506000Y-144915140D02*
X124506000Y-147279460D01*
X124506000Y-147279460D02*
X123939647Y-147845813D01*
X84440000Y-141239000D02*
X84455000Y-141254000D01*
X84455000Y-141254000D02*
X84455000Y-142620000D01*
X83185000Y-141239000D02*
X84440000Y-141239000D01*
X83185000Y-142620000D02*
X83185000Y-141239000D01*
X124968001Y-141097000D02*
X125095000Y-141223999D01*
X125095000Y-141223999D02*
X125095000Y-142620000D01*
X123825000Y-141097000D02*
X124968001Y-141097000D01*
X123825000Y-142620000D02*
X123825000Y-141097000D01*
X104775000Y-142620000D02*
X104775000Y-140970000D01*
X104775000Y-140970000D02*
X103505000Y-140970000D01*
X103505000Y-140970000D02*
X103505000Y-142620000D01*
X145034000Y-140970000D02*
X145415000Y-141351000D01*
X145415000Y-141351000D02*
X145415000Y-142620000D01*
X123825000Y-152020000D02*
X123825000Y-147960460D01*
X123825000Y-147960460D02*
X123939647Y-147845813D01*
X103505000Y-153670000D02*
X103505000Y-152020000D01*
X62865000Y-153670000D02*
X62865000Y-152020000D01*
X83185000Y-154305000D02*
X83185000Y-152020000D01*
X83185000Y-142620000D02*
X83185000Y-144145000D01*
X103505000Y-145271000D02*
X103505000Y-146050000D01*
X103505000Y-146050000D02*
X103505000Y-152020000D01*
X144145000Y-147466397D02*
X144118976Y-147492421D01*
X144145000Y-142620000D02*
X144145000Y-147466397D01*
X144145000Y-152020000D02*
X144145000Y-150495000D01*
X144145000Y-152020000D02*
X144145000Y-151210509D01*
X104775000Y-142620000D02*
X104775000Y-144001000D01*
X104775000Y-144001000D02*
X103505000Y-145271000D01*
X62865000Y-142620000D02*
X62865000Y-152020000D01*
X62230000Y-163000000D02*
X62230000Y-161619000D01*
X62230000Y-161619000D02*
X64135000Y-159714000D01*
X64135000Y-159714000D02*
X64135000Y-152020000D01*
X65405000Y-160020000D02*
X64770000Y-160655000D01*
X64770000Y-160655000D02*
X64770000Y-163000000D01*
X65405000Y-152020000D02*
X65405000Y-160020000D01*
X65405000Y-162365000D02*
X64770000Y-163000000D01*
X65539999Y-152154999D02*
X65405000Y-152020000D01*
X132109499Y-159424559D02*
X136594058Y-154940000D01*
X136594058Y-154940000D02*
X144007441Y-154940000D01*
X144007441Y-154940000D02*
X145415000Y-153532441D01*
X145415000Y-153532441D02*
X145415000Y-152020000D01*
X128270000Y-163000000D02*
X129269999Y-162000001D01*
X129269999Y-162000001D02*
X129514574Y-162000001D01*
X129514574Y-162000001D02*
X132090016Y-159424559D01*
X132090016Y-159424559D02*
X132109499Y-159424559D01*
X130810000Y-163000000D02*
X138288989Y-155521011D01*
X138288989Y-155521011D02*
X145116424Y-155521011D01*
X145116424Y-155521011D02*
X146685000Y-153952435D01*
X146685000Y-153952435D02*
X146685000Y-153765114D01*
X146685000Y-153765114D02*
X146685000Y-152020000D01*
X147955000Y-154480020D02*
X147955000Y-153401000D01*
X147955000Y-153401000D02*
X147955000Y-152020000D01*
X146332998Y-156102022D02*
X147955000Y-154480020D01*
X140247978Y-156102022D02*
X146332998Y-156102022D01*
X133350000Y-163000000D02*
X140247978Y-156102022D01*
X135890000Y-163000000D02*
X142206967Y-156683033D01*
X146573660Y-156683033D02*
X149225000Y-154031693D01*
X149225000Y-154031693D02*
X149225000Y-153401000D01*
X149225000Y-153401000D02*
X149225000Y-152020000D01*
X142206967Y-156683033D02*
X146573660Y-156683033D01*
X138430000Y-163000000D02*
X144165956Y-157264044D01*
X150495000Y-153998476D02*
X150495000Y-153401000D01*
X144165956Y-157264044D02*
X147229432Y-157264044D01*
X147229432Y-157264044D02*
X150495000Y-153998476D01*
X150495000Y-153401000D02*
X150495000Y-152020000D01*
X138200000Y-163000000D02*
X138621064Y-163000000D01*
X140970000Y-163000000D02*
X146124945Y-157845055D01*
X146124945Y-157845055D02*
X147767149Y-157845055D01*
X147767149Y-157845055D02*
X151765000Y-153847204D01*
X151765000Y-153847204D02*
X151765000Y-152020000D01*
X143510000Y-163000000D02*
X143683327Y-163000000D01*
X143683327Y-163000000D02*
X153035000Y-153648327D01*
X153035000Y-153648327D02*
X153035000Y-152020000D01*
X143510000Y-163000000D02*
X144206987Y-163000000D01*
X143280000Y-163000000D02*
X143682138Y-163000000D01*
X146050000Y-163000000D02*
X154305000Y-154745000D01*
X154305000Y-154745000D02*
X154305000Y-152020000D01*
X146050000Y-163000000D02*
X146532058Y-163000000D01*
X145820000Y-163000000D02*
X146222138Y-163000000D01*
X92075000Y-152020000D02*
X92075000Y-153978914D01*
X92075000Y-153978914D02*
X97790000Y-159693914D01*
X97790000Y-159693914D02*
X97790000Y-163000000D01*
X88265000Y-156845000D02*
X90170000Y-158750000D01*
X90170000Y-158750000D02*
X90170000Y-163000000D01*
X88265000Y-152020000D02*
X88265000Y-156845000D01*
X89535000Y-155575000D02*
X92710000Y-158750000D01*
X92710000Y-158750000D02*
X92710000Y-163000000D01*
X89535000Y-152020000D02*
X89535000Y-155575000D01*
X90805000Y-154305000D02*
X95250000Y-158750000D01*
X95250000Y-158750000D02*
X95250000Y-163000000D01*
X90805000Y-152020000D02*
X90805000Y-154305000D01*
X86995000Y-158115000D02*
X87630000Y-158750000D01*
X87630000Y-158750000D02*
X87630000Y-163000000D01*
X86995000Y-152020000D02*
X86995000Y-158115000D01*
X85725000Y-158115000D02*
X85090000Y-158750000D01*
X85090000Y-158750000D02*
X85090000Y-163000000D01*
X85725000Y-152020000D02*
X85725000Y-158115000D01*
X84455000Y-156210000D02*
X82550000Y-158115000D01*
X82550000Y-158115000D02*
X82550000Y-163000000D01*
X84455000Y-152020000D02*
X84455000Y-156210000D01*
X133985000Y-154745000D02*
X133985000Y-152020000D01*
X125730000Y-163000000D02*
X133985000Y-154745000D01*
X133985000Y-152720000D02*
X133985000Y-152020000D01*
X125500000Y-163000000D02*
X125974477Y-163000000D01*
X123190000Y-163000000D02*
X124430501Y-161759499D01*
X124430501Y-161759499D02*
X124430501Y-160118557D01*
X124430501Y-160118557D02*
X125799058Y-158750000D01*
X125799058Y-158750000D02*
X128905000Y-158750000D01*
X128905000Y-158750000D02*
X132715000Y-154940000D01*
X132715000Y-154940000D02*
X132715000Y-152020000D01*
X132715000Y-152720000D02*
X132715000Y-152020000D01*
X128270000Y-157480000D02*
X131445000Y-154305000D01*
X131445000Y-154305000D02*
X131445000Y-152020000D01*
X124529058Y-157480000D02*
X128270000Y-157480000D01*
X120650000Y-163000000D02*
X121890501Y-161759499D01*
X121890501Y-161759499D02*
X121890501Y-160118557D01*
X121890501Y-160118557D02*
X124529058Y-157480000D01*
X131445000Y-152720000D02*
X131445000Y-152020000D01*
X66675000Y-160655000D02*
X67310000Y-161290000D01*
X67310000Y-161290000D02*
X67310000Y-163000000D01*
X66675000Y-152020000D02*
X66675000Y-160655000D01*
X67945000Y-158115000D02*
X69850000Y-160020000D01*
X69850000Y-160020000D02*
X69850000Y-163000000D01*
X67945000Y-152020000D02*
X67945000Y-158115000D01*
X69215000Y-156210000D02*
X72390000Y-159385000D01*
X72390000Y-159385000D02*
X72390000Y-163000000D01*
X69215000Y-152020000D02*
X69215000Y-156210000D01*
X70485000Y-154305000D02*
X74930000Y-158750000D01*
X74930000Y-158750000D02*
X74930000Y-163000000D01*
X70485000Y-152020000D02*
X70485000Y-154305000D01*
X71755000Y-152020000D02*
X71755000Y-154176025D01*
X71755000Y-154176025D02*
X77470000Y-159891025D01*
X77470000Y-159891025D02*
X77470000Y-163000000D01*
X73025000Y-152020000D02*
X73025000Y-153756742D01*
X73025000Y-153756742D02*
X80010000Y-160741742D01*
X80010000Y-160741742D02*
X80010000Y-163000000D01*
X93345000Y-152020000D02*
X93345000Y-153774631D01*
X93345000Y-153774631D02*
X100330000Y-160759631D01*
X100330000Y-160759631D02*
X100330000Y-163000000D01*
X128905000Y-154365289D02*
X128835302Y-154434987D01*
X128905000Y-152020000D02*
X128905000Y-154365289D01*
X128270000Y-156210000D02*
X130175000Y-154305000D01*
X130175000Y-154305000D02*
X130175000Y-152020000D01*
X123259058Y-156210000D02*
X128270000Y-156210000D01*
X118110000Y-163000000D02*
X119409499Y-161700501D01*
X119409499Y-161700501D02*
X119409499Y-160059559D01*
X119409499Y-160059559D02*
X123259058Y-156210000D01*
X95885000Y-142620000D02*
X95885000Y-140960717D01*
X95885000Y-140960717D02*
X104155899Y-132689818D01*
X104155899Y-132689818D02*
X104155899Y-121953031D01*
X104155899Y-121953031D02*
X107430321Y-118678609D01*
X107430321Y-118678609D02*
X151966997Y-118678609D01*
X151966997Y-118678609D02*
X153197997Y-118678609D01*
X95885000Y-143205887D02*
X94158485Y-144932402D01*
X77187034Y-139601598D02*
X76482966Y-139601598D01*
X82517838Y-144932402D02*
X77187034Y-139601598D01*
X75565000Y-140519564D02*
X75565000Y-141239000D01*
X76482966Y-139601598D02*
X75565000Y-140519564D01*
X75565000Y-141239000D02*
X75565000Y-142620000D01*
X95885000Y-142620000D02*
X95885000Y-143205887D01*
X94158485Y-144932402D02*
X82517838Y-144932402D01*
X95885000Y-141755067D02*
X95885000Y-142620000D01*
X74295000Y-140967891D02*
X76242304Y-139020587D01*
X74295000Y-142620000D02*
X74295000Y-140967891D01*
X76242304Y-139020587D02*
X77465727Y-139020587D01*
X90170000Y-126316314D02*
X90170000Y-125095000D01*
X77465727Y-139020587D02*
X90170000Y-126316314D01*
X73025000Y-142620000D02*
X73025000Y-140969324D01*
X73025000Y-140969324D02*
X87645223Y-126349101D01*
X88915899Y-125078425D02*
X88915899Y-123809101D01*
X88915899Y-123809101D02*
X89306401Y-123418599D01*
X87645223Y-126349101D02*
X88231969Y-126349101D01*
X88231969Y-126349101D02*
X88884101Y-125696969D01*
X88884101Y-125696969D02*
X88884101Y-125110223D01*
X88884101Y-125110223D02*
X88915899Y-125078425D01*
X89306401Y-123418599D02*
X90170000Y-122555000D01*
X71755000Y-142620000D02*
X71755000Y-140933969D01*
X87593969Y-125095000D02*
X87630000Y-125095000D01*
X71755000Y-140933969D02*
X85758857Y-126930112D01*
X85758857Y-126930112D02*
X85932631Y-126930112D01*
X85932631Y-126930112D02*
X86925112Y-125937631D01*
X86925112Y-125937631D02*
X86925112Y-125763857D01*
X86925112Y-125763857D02*
X87593969Y-125095000D01*
X70485000Y-142620000D02*
X70485000Y-140981292D01*
X70485000Y-140981292D02*
X85117191Y-126349101D01*
X86344101Y-125696969D02*
X86344101Y-123840899D01*
X86344101Y-123840899D02*
X86766401Y-123418599D01*
X86766401Y-123418599D02*
X87630000Y-122555000D01*
X85117191Y-126349101D02*
X85691969Y-126349101D01*
X85691969Y-126349101D02*
X86344101Y-125696969D01*
X69215000Y-142620000D02*
X69215000Y-140786612D01*
X83071500Y-126930112D02*
X83392631Y-126930112D01*
X83392631Y-126930112D02*
X84385112Y-125937631D01*
X84385112Y-125937631D02*
X84385112Y-125846718D01*
X84385112Y-125846718D02*
X85090000Y-125141830D01*
X69215000Y-140786612D02*
X83071500Y-126930112D01*
X85090000Y-125141830D02*
X85090000Y-125095000D01*
X83804101Y-125696969D02*
X83804101Y-123840899D01*
X82426123Y-126752325D02*
X82426123Y-126349101D01*
X81667325Y-127511123D02*
X82426123Y-126752325D01*
X67945000Y-142620000D02*
X67945000Y-140466061D01*
X84226401Y-123418599D02*
X85090000Y-122555000D01*
X80899938Y-127511123D02*
X81667325Y-127511123D01*
X67945000Y-140466061D02*
X80899938Y-127511123D01*
X82426123Y-126349101D02*
X83151969Y-126349101D01*
X83151969Y-126349101D02*
X83804101Y-125696969D01*
X83804101Y-123840899D02*
X84226401Y-123418599D01*
X81845112Y-126511663D02*
X81845112Y-125799888D01*
X81426663Y-126930112D02*
X81845112Y-126511663D01*
X80178677Y-126930112D02*
X81426663Y-126930112D01*
X66675000Y-142620000D02*
X66675000Y-140433789D01*
X81845112Y-125799888D02*
X82550000Y-125095000D01*
X66675000Y-140433789D02*
X80178677Y-126930112D01*
X65405000Y-142620000D02*
X65405000Y-139996599D01*
X65405000Y-139996599D02*
X79052498Y-126349101D01*
X79052498Y-126349101D02*
X81186001Y-126349101D01*
X81186001Y-126349101D02*
X81264101Y-126271001D01*
X81264101Y-126271001D02*
X81264101Y-123840899D01*
X81264101Y-123840899D02*
X81686401Y-123418599D01*
X81686401Y-123418599D02*
X82550000Y-122555000D01*
X94615000Y-142620000D02*
X94615000Y-140986791D01*
X94615000Y-140986791D02*
X100330000Y-135271791D01*
X100330000Y-135271791D02*
X100330000Y-126316314D01*
X100330000Y-126316314D02*
X100330000Y-125095000D01*
X93345000Y-142620000D02*
X93345000Y-141058936D01*
X93345000Y-141058936D02*
X99075899Y-135328037D01*
X99075899Y-135328037D02*
X99075899Y-123809101D01*
X99075899Y-123809101D02*
X99466401Y-123418599D01*
X99466401Y-123418599D02*
X100330000Y-122555000D01*
X92075000Y-142620000D02*
X92075000Y-141038938D01*
X92075000Y-141038938D02*
X97790000Y-135323938D01*
X97790000Y-135323938D02*
X97790000Y-126316314D01*
X97790000Y-126316314D02*
X97790000Y-125095000D01*
X90805000Y-142620000D02*
X90805000Y-141065011D01*
X90805000Y-141065011D02*
X96535899Y-135334112D01*
X96535899Y-135334112D02*
X96535899Y-123809101D01*
X96535899Y-123809101D02*
X96926401Y-123418599D01*
X96926401Y-123418599D02*
X97790000Y-122555000D01*
X89535000Y-142620000D02*
X89535000Y-141060369D01*
X95250000Y-135345369D02*
X95250000Y-126316314D01*
X89535000Y-141060369D02*
X95250000Y-135345369D01*
X95250000Y-126316314D02*
X95250000Y-125095000D01*
X88265000Y-142620000D02*
X88265000Y-141071086D01*
X88265000Y-141071086D02*
X93995899Y-135340187D01*
X93995899Y-135340187D02*
X93995899Y-123809101D01*
X93995899Y-123809101D02*
X94386401Y-123418599D01*
X94386401Y-123418599D02*
X95250000Y-122555000D01*
X86995000Y-142620000D02*
X86995000Y-141127874D01*
X86995000Y-141127874D02*
X92710000Y-135412874D01*
X92710000Y-135412874D02*
X92710000Y-126316314D01*
X92710000Y-126316314D02*
X92710000Y-125095000D01*
X85725000Y-142620000D02*
X85725000Y-141092518D01*
X85725000Y-141092518D02*
X91455899Y-135361619D01*
X91455899Y-135361619D02*
X91455899Y-123809101D01*
X91455899Y-123809101D02*
X91846401Y-123418599D01*
X91846401Y-123418599D02*
X92710000Y-122555000D01*
X112737899Y-127977899D02*
X112395000Y-127635000D01*
X115757189Y-130997189D02*
X112737899Y-127977899D01*
X135255000Y-141239000D02*
X125013189Y-130997189D01*
X135255000Y-142620000D02*
X135255000Y-141239000D01*
X125013189Y-130997189D02*
X115757189Y-130997189D01*
X133985000Y-142620000D02*
X133985000Y-141217571D01*
X133985000Y-141217571D02*
X126279396Y-133511967D01*
X126279396Y-133511967D02*
X116366967Y-133511967D01*
X116366967Y-133511967D02*
X112102899Y-129247899D01*
X112102899Y-129247899D02*
X111760000Y-128905000D01*
X132715000Y-141239000D02*
X132715000Y-142620000D01*
X115680087Y-134092978D02*
X125826710Y-134092978D01*
X110543989Y-128956880D02*
X115680087Y-134092978D01*
X110490000Y-122555000D02*
X111758945Y-123823945D01*
X110543989Y-128400575D02*
X110543989Y-128956880D01*
X132715000Y-140981268D02*
X132715000Y-141239000D01*
X125826710Y-134092978D02*
X132715000Y-140981268D01*
X111758945Y-123823945D02*
X111758945Y-127185619D01*
X111758945Y-127185619D02*
X110543989Y-128400575D01*
X125586048Y-134673989D02*
X131445000Y-140532941D01*
X131445000Y-141239000D02*
X131445000Y-142620000D01*
X109962978Y-129197542D02*
X115439425Y-134673989D01*
X110490000Y-126316314D02*
X109962978Y-126843336D01*
X110490000Y-125095000D02*
X110490000Y-126316314D01*
X115439425Y-134673989D02*
X125586048Y-134673989D01*
X109962978Y-126843336D02*
X109962978Y-129197542D01*
X131445000Y-140532941D02*
X131445000Y-141239000D01*
X114935000Y-141239000D02*
X114935000Y-142620000D01*
X114935000Y-140632687D02*
X114935000Y-141239000D01*
X109121598Y-129822966D02*
X109121598Y-134819285D01*
X109204101Y-123809101D02*
X109204101Y-129740463D01*
X109204101Y-129740463D02*
X109121598Y-129822966D01*
X107950000Y-122555000D02*
X109204101Y-123809101D01*
X109121598Y-134819285D02*
X114935000Y-140632687D01*
X113665000Y-140184360D02*
X113665000Y-141239000D01*
X113665000Y-141239000D02*
X113665000Y-142620000D01*
X107950000Y-125095000D02*
X107950000Y-134469360D01*
X107950000Y-134469360D02*
X113665000Y-140184360D01*
X110197899Y-130517899D02*
X109855000Y-130175000D01*
X114935000Y-135255000D02*
X110197899Y-130517899D01*
X125345386Y-135255000D02*
X114935000Y-135255000D01*
X130175000Y-142620000D02*
X130175000Y-140084614D01*
X130175000Y-140084614D02*
X125345386Y-135255000D01*
X156845000Y-140335000D02*
X156845000Y-142620000D01*
X156845000Y-142620000D02*
X156845000Y-141920000D01*
X149417496Y-137054050D02*
X150062556Y-137699110D01*
X139127402Y-126349101D02*
X149417496Y-136639195D01*
X120650000Y-122555000D02*
X120787742Y-122555000D01*
X152035110Y-137699110D02*
X155575000Y-141239000D01*
X123791969Y-123840899D02*
X124475899Y-124524829D01*
X155575000Y-141239000D02*
X155575000Y-142620000D01*
X124475899Y-124524829D02*
X124475899Y-125696969D01*
X122073641Y-123840899D02*
X123791969Y-123840899D01*
X120787742Y-122555000D02*
X122073641Y-123840899D01*
X149417496Y-136639195D02*
X149417496Y-137054050D01*
X125128031Y-126349101D02*
X139127402Y-126349101D01*
X150062556Y-137699110D02*
X152035110Y-137699110D01*
X124475899Y-125696969D02*
X125128031Y-126349101D01*
X124306358Y-126349101D02*
X124887369Y-126930112D01*
X138886740Y-126930112D02*
X148836485Y-136879857D01*
X121513599Y-125958599D02*
X122197529Y-125958599D01*
X154305000Y-141239000D02*
X154305000Y-142620000D01*
X151368548Y-138280121D02*
X154305000Y-141216573D01*
X148836485Y-136879857D02*
X148836485Y-137294712D01*
X148836485Y-137294712D02*
X149821894Y-138280121D01*
X124887369Y-126930112D02*
X138886740Y-126930112D01*
X149821894Y-138280121D02*
X151368548Y-138280121D01*
X154305000Y-141216573D02*
X154305000Y-141239000D01*
X122197529Y-125958599D02*
X122588031Y-126349101D01*
X122588031Y-126349101D02*
X124306358Y-126349101D01*
X120650000Y-125095000D02*
X121513599Y-125958599D01*
X153035000Y-141239000D02*
X153035000Y-142620000D01*
X124065702Y-126930117D02*
X124646707Y-127511123D01*
X153035000Y-140768246D02*
X153035000Y-141239000D01*
X122160180Y-126742923D02*
X122347369Y-126930112D01*
X151127886Y-138861132D02*
X153035000Y-140768246D01*
X148255474Y-137535374D02*
X149581232Y-138861132D01*
X138646078Y-127511123D02*
X148255474Y-137120519D01*
X118110000Y-122555000D02*
X118110000Y-122692742D01*
X124646707Y-127511123D02*
X138646078Y-127511123D01*
X120441853Y-126742923D02*
X122160180Y-126742923D01*
X119364101Y-123946843D02*
X119364101Y-125665171D01*
X118110000Y-122692742D02*
X119364101Y-123946843D01*
X149581232Y-138861132D02*
X151127886Y-138861132D01*
X122347369Y-126930112D02*
X124065702Y-126930117D01*
X119364101Y-125665171D02*
X120441853Y-126742923D01*
X148255474Y-137120519D02*
X148255474Y-137535374D01*
X123825038Y-127511126D02*
X124406045Y-128092134D01*
X138405413Y-128092134D02*
X147674463Y-137361184D01*
X151765000Y-141239000D02*
X151765000Y-142620000D01*
X147674463Y-137776036D02*
X149340570Y-139442143D01*
X147674463Y-137361184D02*
X147674463Y-137776036D01*
X118110000Y-125232743D02*
X120201191Y-127323934D01*
X118110000Y-125095000D02*
X118110000Y-125232743D01*
X121919518Y-127323934D02*
X122106707Y-127511123D01*
X149968143Y-139442143D02*
X151765000Y-141239000D01*
X120201191Y-127323934D02*
X121919518Y-127323934D01*
X124406045Y-128092134D02*
X138405413Y-128092134D01*
X122106707Y-127511123D02*
X123825038Y-127511126D01*
X149340570Y-139442143D02*
X149968143Y-139442143D01*
X150495000Y-141239000D02*
X150495000Y-142620000D01*
X149099908Y-140023154D02*
X149514763Y-140023154D01*
X147093452Y-138016698D02*
X149099908Y-140023154D01*
X147093452Y-137601846D02*
X147093452Y-138016698D01*
X116824101Y-125665171D02*
X119063875Y-127904945D01*
X124165383Y-128673145D02*
X138164751Y-128673145D01*
X150495000Y-141003391D02*
X150495000Y-141239000D01*
X123584375Y-128092136D02*
X124165383Y-128673145D01*
X121866045Y-128092134D02*
X123584375Y-128092136D01*
X116824101Y-123809101D02*
X116824101Y-125665171D01*
X149514763Y-140023154D02*
X150495000Y-141003391D01*
X115570000Y-122555000D02*
X116824101Y-123809101D01*
X138164751Y-128673145D02*
X147093452Y-137601846D01*
X121678856Y-127904945D02*
X121866045Y-128092134D01*
X119063875Y-127904945D02*
X121678856Y-127904945D01*
X118512629Y-128485956D02*
X121438194Y-128485956D01*
X123924721Y-129254156D02*
X137877177Y-129254156D01*
X115570000Y-125543327D02*
X118512629Y-128485956D01*
X123343712Y-128673146D02*
X123924721Y-129254156D01*
X148859246Y-140604165D02*
X149225000Y-140604165D01*
X115570000Y-125095000D02*
X115570000Y-125543327D01*
X121438194Y-128485956D02*
X121625383Y-128673145D01*
X121625383Y-128673145D02*
X123343712Y-128673146D01*
X137877177Y-129254156D02*
X146512441Y-137889420D01*
X146512441Y-137889420D02*
X146512441Y-138257360D01*
X146512441Y-138257360D02*
X148859246Y-140604165D01*
X149225000Y-140604165D02*
X149225000Y-142620000D01*
X113030000Y-122555000D02*
X114284101Y-123809101D01*
X137144567Y-129835167D02*
X147274000Y-139964600D01*
X147274000Y-139964600D02*
X147274000Y-140402474D01*
X114284101Y-123809101D02*
X114284101Y-125665171D01*
X114284101Y-125665171D02*
X117685897Y-129066967D01*
X117685897Y-129066967D02*
X121197532Y-129066967D01*
X121384721Y-129254156D02*
X123103049Y-129254156D01*
X123103049Y-129254156D02*
X123684059Y-129835167D01*
X121197532Y-129066967D02*
X121384721Y-129254156D01*
X123684059Y-129835167D02*
X137144567Y-129835167D01*
X147274000Y-140402474D02*
X147955000Y-141083474D01*
X147955000Y-141083474D02*
X147955000Y-142620000D01*
X113030000Y-125095000D02*
X113030000Y-126316314D01*
X113030000Y-126316314D02*
X116361664Y-129647978D01*
X116361664Y-129647978D02*
X120956870Y-129647978D01*
X120956870Y-129647978D02*
X121144059Y-129835167D01*
X121144059Y-129835167D02*
X122862387Y-129835167D01*
X122862387Y-129835167D02*
X123443397Y-130416178D01*
X123443397Y-130416178D02*
X135644035Y-130416178D01*
X135644035Y-130416178D02*
X146685000Y-141457143D01*
X146685000Y-141457143D02*
X146685000Y-142620000D01*
X117475000Y-142620000D02*
X117475000Y-143246000D01*
X117475000Y-143246000D02*
X115845501Y-144875499D01*
X97155000Y-142620000D02*
X97155000Y-143246000D01*
X97155000Y-143246000D02*
X95525501Y-144875499D01*
X97155000Y-142620000D02*
X97155000Y-143320000D01*
X158115000Y-142620000D02*
X158115000Y-144253040D01*
X158115000Y-144253040D02*
X157612604Y-144755436D01*
X157612604Y-144755436D02*
X156828344Y-144755436D01*
X158115000Y-142620000D02*
X158115000Y-136999670D01*
X158115000Y-136999670D02*
X156333438Y-135218108D01*
X156333438Y-135218108D02*
X151898498Y-135218108D01*
X151898498Y-135218108D02*
X151507996Y-135608610D01*
X151507996Y-135608610D02*
X150657997Y-136458609D01*
X76835000Y-142620000D02*
X76835000Y-140335000D01*
X137795000Y-144175219D02*
X137580938Y-144389281D01*
X137795000Y-142620000D02*
X137795000Y-144175219D01*
X76056000Y-144780000D02*
X74295000Y-144780000D01*
X76835000Y-142620000D02*
X76835000Y-144001000D01*
X76835000Y-144001000D02*
X76056000Y-144780000D01*
X94615000Y-149370104D02*
X92887142Y-147642246D01*
X92887142Y-147642246D02*
X76790389Y-147642246D01*
X76790389Y-147642246D02*
X74295000Y-150137635D01*
X74295000Y-150137635D02*
X74295000Y-152020000D01*
X100330000Y-142875000D02*
X100330000Y-143655104D01*
X100330000Y-143655104D02*
X94615000Y-149370104D01*
X94615000Y-152020000D02*
X94615000Y-149370104D01*
X138249027Y-136985804D02*
X138591926Y-136642905D01*
X136525000Y-138709831D02*
X138249027Y-136985804D01*
X136525000Y-142620000D02*
X136525000Y-138709831D01*
X141605000Y-142240000D02*
X136346303Y-147498697D01*
X135248037Y-147498697D02*
X134574000Y-148172734D01*
X136346303Y-147498697D02*
X135248037Y-147498697D01*
X134574000Y-148172734D02*
X134574000Y-149786752D01*
X134574000Y-149786752D02*
X135255000Y-150467752D01*
X135255000Y-150467752D02*
X135255000Y-152020000D01*
X155575000Y-152020000D02*
X155575000Y-144780000D01*
X155575000Y-144780000D02*
X155432853Y-144637853D01*
X155575000Y-152020000D02*
X155575000Y-151320000D01*
X158115000Y-152020000D02*
X158115000Y-150295476D01*
X158115000Y-150295476D02*
X157044524Y-149225000D01*
X157044524Y-149225000D02*
X156454000Y-149225000D01*
X76835000Y-150151793D02*
X76878093Y-150108700D01*
X76835000Y-152020000D02*
X76835000Y-150151793D01*
X97155000Y-150118314D02*
X97114109Y-150077423D01*
X97155000Y-152020000D02*
X97155000Y-150118314D01*
X117475000Y-150139745D02*
X117412678Y-150077423D01*
X117475000Y-152020000D02*
X117475000Y-150139745D01*
X137795000Y-152020000D02*
X137795000Y-150427028D01*
X137112473Y-149744501D02*
X135614499Y-149744501D01*
X137795000Y-150427028D02*
X137112473Y-149744501D01*
X97155000Y-152020000D02*
X97155000Y-154021779D01*
X105410000Y-162276779D02*
X105410000Y-163000000D01*
X97155000Y-154021779D02*
X105410000Y-162276779D01*
X69850000Y-132715000D02*
X77470000Y-125095000D01*
X77470000Y-125095000D02*
X80010000Y-125095000D01*
X123190000Y-125095000D02*
X122506070Y-125095000D01*
X150404227Y-119439108D02*
X150884229Y-119919110D01*
X122506070Y-125095000D02*
X121251969Y-123840899D01*
X121251969Y-123840899D02*
X120079829Y-123840899D01*
X121909822Y-119439108D02*
X150404227Y-119439108D01*
X120079829Y-123840899D02*
X119395899Y-123156969D01*
X119395899Y-121953031D02*
X121909822Y-119439108D01*
X119395899Y-123156969D02*
X119395899Y-121953031D01*
X150884229Y-119919110D02*
X154497496Y-119919110D01*
X154497496Y-119919110D02*
X154887998Y-119528608D01*
X154887998Y-119528608D02*
X155737997Y-118678609D01*
X156333438Y-124999110D02*
X156978498Y-124354050D01*
X125730000Y-125095000D02*
X125730000Y-124411070D01*
X125730000Y-124411070D02*
X124475899Y-123156969D01*
X124475899Y-123156969D02*
X124475899Y-121953031D01*
X124475899Y-121953031D02*
X125128031Y-121300899D01*
X125128031Y-121300899D02*
X148904345Y-121300899D01*
X156978498Y-122459110D02*
X156587996Y-122068608D01*
X148904345Y-121300899D02*
X152602556Y-124999110D01*
X152602556Y-124999110D02*
X156333438Y-124999110D01*
X156978498Y-124354050D02*
X156978498Y-122459110D01*
X156587996Y-122068608D02*
X155737997Y-121218609D01*
X123190000Y-121333686D02*
X124108667Y-120415019D01*
X123190000Y-122555000D02*
X123190000Y-121333686D01*
X124108667Y-120415019D02*
X150558465Y-120415019D01*
X150558465Y-120415019D02*
X152602556Y-122459110D01*
X152602556Y-122459110D02*
X154438498Y-122459110D01*
X154438498Y-122459110D02*
X154887998Y-122908610D01*
X154887998Y-122908610D02*
X155737997Y-123758609D01*
X125730000Y-122555000D02*
X126984101Y-123809101D01*
X126984101Y-123809101D02*
X148872547Y-123809101D01*
X148872547Y-123809101D02*
X152602556Y-127539110D01*
X152602556Y-127539110D02*
X154497496Y-127539110D01*
X154497496Y-127539110D02*
X154887998Y-127148608D01*
X154887998Y-127148608D02*
X155737997Y-126298609D01*
X116205000Y-142620000D02*
X116205000Y-141219257D01*
X116205000Y-141219257D02*
X116779963Y-140644294D01*
X116779963Y-140644294D02*
X118736812Y-140644294D01*
X118736812Y-140644294D02*
X119221745Y-140644294D01*
X114935000Y-152020000D02*
X114935000Y-149323412D01*
X114935000Y-149323412D02*
X120307101Y-143951311D01*
X120307101Y-143951311D02*
X120650000Y-143608412D01*
X112395000Y-141239000D02*
X112395000Y-142620000D01*
X112395000Y-139736033D02*
X112395000Y-141239000D01*
X106664101Y-134005134D02*
X112395000Y-139736033D01*
X105410000Y-122555000D02*
X106664101Y-123809101D01*
X106664101Y-123809101D02*
X106664101Y-134005134D01*
X128905000Y-142620000D02*
X128905000Y-140039084D01*
X128905000Y-140039084D02*
X128974517Y-139969567D01*
X127635000Y-140143131D02*
X127808564Y-139969567D01*
X127635000Y-142620000D02*
X127635000Y-140143131D01*
X127635000Y-141668590D02*
X127635000Y-142620000D01*
X125730000Y-139700000D02*
X125730000Y-140256183D01*
X125730000Y-140256183D02*
X126365000Y-140891183D01*
X126365000Y-140891183D02*
X126365000Y-142620000D01*
X111125000Y-142620000D02*
X111125000Y-140441754D01*
X111125000Y-140441754D02*
X111246258Y-140320496D01*
X111246258Y-140320496D02*
X111589157Y-139977597D01*
X109855000Y-139599719D02*
X109535728Y-139280447D01*
X109855000Y-142620000D02*
X109855000Y-139599719D01*
X108585000Y-142620000D02*
X108585000Y-140091743D01*
X108585000Y-140091743D02*
X108597742Y-140079001D01*
X107315000Y-139065000D02*
X107315000Y-142620000D01*
X106045000Y-140335000D02*
X106045000Y-142620000D01*
X106045000Y-141920000D02*
X106045000Y-142620000D01*
X127635000Y-152020000D02*
X127635000Y-154403410D01*
X126365000Y-152020000D02*
X126365000Y-154403410D01*
X125095000Y-152020000D02*
X125095000Y-154403410D01*
X109855000Y-152020000D02*
X109855000Y-155053174D01*
X108585000Y-152020000D02*
X108585000Y-155053174D01*
X107315000Y-155053174D02*
X107799564Y-155537738D01*
X107315000Y-152020000D02*
X107315000Y-155053174D01*
X110490000Y-160655000D02*
X110490000Y-159452919D01*
X110490000Y-159452919D02*
X106045000Y-155007919D01*
X106045000Y-155007919D02*
X106045000Y-153401000D01*
X106045000Y-153401000D02*
X106045000Y-152020000D01*
X107950000Y-160655000D02*
X107950000Y-159424000D01*
X107950000Y-159424000D02*
X104775000Y-156249000D01*
X104775000Y-156249000D02*
X104775000Y-153401000D01*
X104775000Y-153401000D02*
X104775000Y-152020000D01*
X111730501Y-155545501D02*
X111125000Y-154940000D01*
X111125000Y-154940000D02*
X111125000Y-152020000D01*
X110490000Y-163000000D02*
X111730501Y-161759499D01*
X111730501Y-161759499D02*
X111730501Y-155545501D01*
X114270501Y-159355501D02*
X112395000Y-157480000D01*
X112395000Y-157480000D02*
X112395000Y-152020000D01*
X113030000Y-163000000D02*
X114270501Y-161759499D01*
X114270501Y-161759499D02*
X114270501Y-159355501D01*
X112800000Y-163000000D02*
X113076000Y-162724000D01*
X116810501Y-158720501D02*
X113665000Y-155575000D01*
X113665000Y-155575000D02*
X113665000Y-152020000D01*
X115570000Y-163000000D02*
X116810501Y-161759499D01*
X116810501Y-161759499D02*
X116810501Y-158720501D01*
M02*
