M48
;DRILL file {KiCad 4.0.7} date Wed Feb  7 00:44:37 2018
;FORMAT={-:-/ absolute / metric / decimal}
FMAT,2
METRIC,TZ
T1C0.330
T2C1.000
T3C1.016
%
G90
G05
M71
T1
X62.865Y-153.67
X74.295Y-144.78
X76.835Y-140.335
X76.878Y-150.109
X83.185Y-144.145
X83.185Y-154.305
X83.219Y-148.472
X95.526Y-144.875
X97.114Y-150.077
X100.33Y-142.875
X103.505Y-146.05
X103.505Y-153.67
X106.045Y-140.335
X107.315Y-139.065
X107.8Y-155.538
X108.585Y-155.053
X108.598Y-140.079
X109.536Y-139.28
X109.855Y-130.175
X109.855Y-155.053
X111.589Y-139.978
X111.76Y-128.905
X112.395Y-127.635
X115.846Y-144.875
X117.413Y-150.077
X119.222Y-140.644
X120.65Y-143.608
X123.94Y-147.846
X125.095Y-154.403
X125.73Y-139.7
X126.365Y-154.403
X127.635Y-154.403
X127.809Y-139.97
X128.835Y-154.435
X128.975Y-139.97
X135.614Y-149.745
X137.581Y-144.389
X138.43Y-134.62
X138.592Y-136.643
X141.605Y-142.24
X155.433Y-144.638
X156.454Y-149.225
X156.828Y-144.755
X156.845Y-140.335
T2
X62.23Y-163.
X64.77Y-163.
X67.31Y-163.
X69.85Y-127.635
X69.85Y-130.175
X69.85Y-132.715
X69.85Y-163.
X72.39Y-163.
X74.93Y-163.
X77.47Y-163.
X80.01Y-163.
X82.55Y-163.
X85.09Y-163.
X87.63Y-163.
X90.17Y-163.
X92.71Y-163.
X95.25Y-163.
X97.79Y-163.
X100.33Y-163.
X102.87Y-163.
X105.41Y-163.
X107.95Y-160.655
X107.95Y-163.
X110.49Y-160.655
X110.49Y-163.
X113.03Y-160.655
X113.03Y-163.
X115.57Y-160.655
X115.57Y-163.
X118.11Y-160.655
X118.11Y-163.
X120.65Y-160.655
X120.65Y-163.
X123.19Y-160.655
X123.19Y-163.
X125.73Y-160.655
X125.73Y-163.
X128.27Y-163.
X130.81Y-163.
X133.35Y-163.
X135.89Y-163.
X138.43Y-163.
X140.97Y-163.
X143.51Y-163.
X146.05Y-163.
X148.59Y-163.
X150.658Y-128.839
X150.658Y-131.379
X150.658Y-133.919
X150.658Y-136.459
X151.13Y-163.
X153.198Y-118.679
X153.198Y-121.219
X153.198Y-123.759
X153.198Y-126.299
X153.198Y-128.839
X153.198Y-131.379
X153.198Y-133.919
X153.198Y-136.459
X153.67Y-163.
X155.738Y-118.679
X155.738Y-121.219
X155.738Y-123.759
X155.738Y-126.299
X155.738Y-128.839
X155.738Y-131.379
X155.738Y-133.919
X155.738Y-136.459
X156.21Y-163.
X158.75Y-163.
T3
X80.01Y-122.555
X80.01Y-125.095
X82.55Y-122.555
X82.55Y-125.095
X85.09Y-122.555
X85.09Y-125.095
X87.63Y-122.555
X87.63Y-125.095
X90.17Y-122.555
X90.17Y-125.095
X92.71Y-122.555
X92.71Y-125.095
X95.25Y-122.555
X95.25Y-125.095
X97.79Y-122.555
X97.79Y-125.095
X100.33Y-122.555
X100.33Y-125.095
X102.87Y-122.555
X102.87Y-125.095
X105.41Y-122.555
X105.41Y-125.095
X107.95Y-122.555
X107.95Y-125.095
X110.49Y-122.555
X110.49Y-125.095
X113.03Y-122.555
X113.03Y-125.095
X115.57Y-122.555
X115.57Y-125.095
X118.11Y-122.555
X118.11Y-125.095
X120.65Y-122.555
X120.65Y-125.095
X123.19Y-122.555
X123.19Y-125.095
X125.73Y-122.555
X125.73Y-125.095
X128.27Y-122.555
X128.27Y-125.095
X130.81Y-122.555
X130.81Y-125.095
X133.35Y-122.555
X133.35Y-125.095
X135.89Y-122.555
X135.89Y-125.095
X138.43Y-122.555
X138.43Y-125.095
X140.97Y-122.555
X140.97Y-125.095
T0
M30
