G04 #@! TF.FileFunction,Soldermask,Top*
%FSLAX46Y46*%
G04 Gerber Fmt 4.6, Leading zero omitted, Abs format (unit mm)*
G04 Created by KiCad (PCBNEW 4.0.7) date Wed Feb  7 00:44:32 2018*
%MOMM*%
%LPD*%
G01*
G04 APERTURE LIST*
%ADD10C,0.100000*%
%ADD11R,1.000000X2.400000*%
%ADD12R,2.400000X2.400000*%
%ADD13O,2.400000X2.400000*%
%ADD14R,2.100000X2.100000*%
%ADD15O,2.100000X2.100000*%
%ADD16R,2.127200X2.127200*%
%ADD17O,2.127200X2.127200*%
G04 APERTURE END LIST*
D10*
D11*
X158115000Y-142620000D03*
X156845000Y-142620000D03*
X155575000Y-142620000D03*
X154305000Y-142620000D03*
X153035000Y-142620000D03*
X151765000Y-142620000D03*
X150495000Y-142620000D03*
X149225000Y-142620000D03*
X147955000Y-142620000D03*
X146685000Y-142620000D03*
X145415000Y-142620000D03*
X144145000Y-142620000D03*
X144145000Y-152020000D03*
X145415000Y-152020000D03*
X146685000Y-152020000D03*
X147955000Y-152020000D03*
X149225000Y-152020000D03*
X150495000Y-152020000D03*
X151765000Y-152020000D03*
X153035000Y-152020000D03*
X154305000Y-152020000D03*
X155575000Y-152020000D03*
X156845000Y-152020000D03*
X158115000Y-152020000D03*
X97155000Y-142620000D03*
X95885000Y-142620000D03*
X94615000Y-142620000D03*
X93345000Y-142620000D03*
X92075000Y-142620000D03*
X90805000Y-142620000D03*
X89535000Y-142620000D03*
X88265000Y-142620000D03*
X86995000Y-142620000D03*
X85725000Y-142620000D03*
X84455000Y-142620000D03*
X83185000Y-142620000D03*
X83185000Y-152020000D03*
X84455000Y-152020000D03*
X85725000Y-152020000D03*
X86995000Y-152020000D03*
X88265000Y-152020000D03*
X89535000Y-152020000D03*
X90805000Y-152020000D03*
X92075000Y-152020000D03*
X93345000Y-152020000D03*
X94615000Y-152020000D03*
X95885000Y-152020000D03*
X97155000Y-152020000D03*
X137795000Y-142620000D03*
X136525000Y-142620000D03*
X135255000Y-142620000D03*
X133985000Y-142620000D03*
X132715000Y-142620000D03*
X131445000Y-142620000D03*
X130175000Y-142620000D03*
X128905000Y-142620000D03*
X127635000Y-142620000D03*
X126365000Y-142620000D03*
X125095000Y-142620000D03*
X123825000Y-142620000D03*
X123825000Y-152020000D03*
X125095000Y-152020000D03*
X126365000Y-152020000D03*
X127635000Y-152020000D03*
X128905000Y-152020000D03*
X130175000Y-152020000D03*
X131445000Y-152020000D03*
X132715000Y-152020000D03*
X133985000Y-152020000D03*
X135255000Y-152020000D03*
X136525000Y-152020000D03*
X137795000Y-152020000D03*
X117475000Y-142620000D03*
X116205000Y-142620000D03*
X114935000Y-142620000D03*
X113665000Y-142620000D03*
X112395000Y-142620000D03*
X111125000Y-142620000D03*
X109855000Y-142620000D03*
X108585000Y-142620000D03*
X107315000Y-142620000D03*
X106045000Y-142620000D03*
X104775000Y-142620000D03*
X103505000Y-142620000D03*
X103505000Y-152020000D03*
X104775000Y-152020000D03*
X106045000Y-152020000D03*
X107315000Y-152020000D03*
X108585000Y-152020000D03*
X109855000Y-152020000D03*
X111125000Y-152020000D03*
X112395000Y-152020000D03*
X113665000Y-152020000D03*
X114935000Y-152020000D03*
X116205000Y-152020000D03*
X117475000Y-152020000D03*
D12*
X62230000Y-163000000D03*
D13*
X64770000Y-163000000D03*
X67310000Y-163000000D03*
X69850000Y-163000000D03*
X72390000Y-163000000D03*
X74930000Y-163000000D03*
X77470000Y-163000000D03*
X80010000Y-163000000D03*
X82550000Y-163000000D03*
X85090000Y-163000000D03*
X87630000Y-163000000D03*
X90170000Y-163000000D03*
X92710000Y-163000000D03*
X95250000Y-163000000D03*
X97790000Y-163000000D03*
X100330000Y-163000000D03*
X102870000Y-163000000D03*
X105410000Y-163000000D03*
X107950000Y-163000000D03*
X110490000Y-163000000D03*
X113030000Y-163000000D03*
X115570000Y-163000000D03*
X118110000Y-163000000D03*
X120650000Y-163000000D03*
X123190000Y-163000000D03*
X125730000Y-163000000D03*
X128270000Y-163000000D03*
X130810000Y-163000000D03*
X133350000Y-163000000D03*
X135890000Y-163000000D03*
X138430000Y-163000000D03*
X140970000Y-163000000D03*
X143510000Y-163000000D03*
X146050000Y-163000000D03*
X148590000Y-163000000D03*
X151130000Y-163000000D03*
X153670000Y-163000000D03*
X156210000Y-163000000D03*
X158750000Y-163000000D03*
D11*
X76835000Y-142620000D03*
X75565000Y-142620000D03*
X74295000Y-142620000D03*
X73025000Y-142620000D03*
X71755000Y-142620000D03*
X70485000Y-142620000D03*
X69215000Y-142620000D03*
X67945000Y-142620000D03*
X66675000Y-142620000D03*
X65405000Y-142620000D03*
X64135000Y-142620000D03*
X62865000Y-142620000D03*
X62865000Y-152020000D03*
X64135000Y-152020000D03*
X65405000Y-152020000D03*
X66675000Y-152020000D03*
X67945000Y-152020000D03*
X69215000Y-152020000D03*
X70485000Y-152020000D03*
X71755000Y-152020000D03*
X73025000Y-152020000D03*
X74295000Y-152020000D03*
X75565000Y-152020000D03*
X76835000Y-152020000D03*
D14*
X69850000Y-127635000D03*
D15*
X69850000Y-130175000D03*
X69850000Y-132715000D03*
D14*
X150657997Y-128838609D03*
D15*
X150657997Y-131378609D03*
X150657997Y-133918609D03*
X150657997Y-136458609D03*
D14*
X153197997Y-118678609D03*
D15*
X155737997Y-118678609D03*
X153197997Y-121218609D03*
X155737997Y-121218609D03*
X153197997Y-123758609D03*
X155737997Y-123758609D03*
X153197997Y-126298609D03*
X155737997Y-126298609D03*
X153197997Y-128838609D03*
X155737997Y-128838609D03*
X153197997Y-131378609D03*
X155737997Y-131378609D03*
X153197997Y-133918609D03*
X155737997Y-133918609D03*
X153197997Y-136458609D03*
X155737997Y-136458609D03*
D14*
X107950000Y-160655000D03*
D15*
X110490000Y-160655000D03*
X113030000Y-160655000D03*
X115570000Y-160655000D03*
X118110000Y-160655000D03*
X120650000Y-160655000D03*
X123190000Y-160655000D03*
X125730000Y-160655000D03*
D16*
X80010000Y-125095000D03*
D17*
X80010000Y-122555000D03*
X82550000Y-125095000D03*
X82550000Y-122555000D03*
X85090000Y-125095000D03*
X85090000Y-122555000D03*
X87630000Y-125095000D03*
X87630000Y-122555000D03*
X90170000Y-125095000D03*
X90170000Y-122555000D03*
X92710000Y-125095000D03*
X92710000Y-122555000D03*
X95250000Y-125095000D03*
X95250000Y-122555000D03*
X97790000Y-125095000D03*
X97790000Y-122555000D03*
X100330000Y-125095000D03*
X100330000Y-122555000D03*
X102870000Y-125095000D03*
X102870000Y-122555000D03*
X105410000Y-125095000D03*
X105410000Y-122555000D03*
X107950000Y-125095000D03*
X107950000Y-122555000D03*
X110490000Y-125095000D03*
X110490000Y-122555000D03*
X113030000Y-125095000D03*
X113030000Y-122555000D03*
X115570000Y-125095000D03*
X115570000Y-122555000D03*
X118110000Y-125095000D03*
X118110000Y-122555000D03*
X120650000Y-125095000D03*
X120650000Y-122555000D03*
X123190000Y-125095000D03*
X123190000Y-122555000D03*
X125730000Y-125095000D03*
X125730000Y-122555000D03*
X128270000Y-125095000D03*
X128270000Y-122555000D03*
X130810000Y-125095000D03*
X130810000Y-122555000D03*
X133350000Y-125095000D03*
X133350000Y-122555000D03*
X135890000Y-125095000D03*
X135890000Y-122555000D03*
X138430000Y-125095000D03*
X138430000Y-122555000D03*
X140970000Y-125095000D03*
X140970000Y-122555000D03*
M02*
